<svg xmlns="http://www.w3.org/2000/svg" xmlns:xlink="http://www.w3.org/1999/xlink" width="1640" zoomAndPan="magnify" viewBox="0 0 1230 467.999983" height="624" preserveAspectRatio="xMidYMid meet" version="1.0"><defs><clipPath id="29892171bc"><path d="M 544.804688 285.710938 L 689.554688 285.710938 L 689.554688 430.460938 L 544.804688 430.460938 Z M 544.804688 285.710938 " clip-rule="nonzero"/></clipPath><clipPath id="4c28d33b36"><path d="M 380.675781 285.710938 L 525.425781 285.710938 L 525.425781 430.460938 L 380.675781 430.460938 Z M 380.675781 285.710938 " clip-rule="nonzero"/></clipPath><clipPath id="0bd41e0b71"><path d="M 704.894531 285.710938 L 849.644531 285.710938 L 849.644531 430.460938 L 704.894531 430.460938 Z M 704.894531 285.710938 " clip-rule="nonzero"/></clipPath><clipPath id="73e04d99eb"><path d="M 54.542969 64 L 77 64 L 77 88 L 54.542969 88 Z M 54.542969 64 " clip-rule="nonzero"/></clipPath><clipPath id="7b1300d8d7"><path d="M 214 380 L 235.261719 380 L 235.261719 405 L 214 405 Z M 214 380 " clip-rule="nonzero"/></clipPath><clipPath id="ab3bc39338"><path d="M 1160 332 L 1182.859375 332 L 1182.859375 355 L 1160 355 Z M 1160 332 " clip-rule="nonzero"/></clipPath><clipPath id="e3c533ece9"><path d="M 1002.140625 15 L 1023 15 L 1023 40 L 1002.140625 40 Z M 1002.140625 15 " clip-rule="nonzero"/></clipPath><clipPath id="fedd049571"><path d="M 414.210938 366 L 477 366 L 477 391.117188 L 414.210938 391.117188 Z M 414.210938 366 " clip-rule="nonzero"/></clipPath><clipPath id="3d75c55814"><path d="M 462 345 L 478.710938 345 L 478.710938 385 L 462 385 Z M 462 345 " clip-rule="nonzero"/></clipPath><clipPath id="a04e922f38"><path d="M 455 324.367188 L 476 324.367188 L 476 345 L 455 345 Z M 455 324.367188 " clip-rule="nonzero"/></clipPath><clipPath id="0bcfb6c25d"><path d="M 463 324.367188 L 466 324.367188 L 466 345 L 463 345 Z M 463 324.367188 " clip-rule="nonzero"/></clipPath><clipPath id="da46c36b2c"><path d="M 466 324.367188 L 468 324.367188 L 468 344 L 466 344 Z M 466 324.367188 " clip-rule="nonzero"/></clipPath><clipPath id="7e726ab0be"><path d="M 574.542969 332.152344 L 667.542969 332.152344 L 667.542969 391.402344 L 574.542969 391.402344 Z M 574.542969 332.152344 " clip-rule="nonzero"/></clipPath><clipPath id="4a986e42b3"><path d="M 733.855469 324.429688 L 820.105469 324.429688 L 820.105469 385 L 733.855469 385 Z M 733.855469 324.429688 " clip-rule="nonzero"/></clipPath><clipPath id="6ca41585a3"><path d="M 742.398438 369 L 755.21875 369 L 755.21875 387.367188 L 742.398438 387.367188 Z M 742.398438 369 " clip-rule="nonzero"/></clipPath><clipPath id="7a9d3facd2"><path d="M 761.414062 357.757812 L 774.234375 357.757812 L 774.234375 387.367188 L 761.414062 387.367188 Z M 761.414062 357.757812 " clip-rule="nonzero"/></clipPath><clipPath id="039ecd5ea3"><path d="M 780.429688 355.835938 L 793.25 355.835938 L 793.25 387.367188 L 780.429688 387.367188 Z M 780.429688 355.835938 " clip-rule="nonzero"/></clipPath><clipPath id="5880233dd5"><path d="M 799.230469 339.171875 L 812.265625 339.171875 L 812.265625 387.367188 L 799.230469 387.367188 Z M 799.230469 339.171875 " clip-rule="nonzero"/></clipPath></defs><rect x="-123" width="1476" fill="#ffffff" y="-46.799998" height="561.59998" fill-opacity="1"/><rect x="-123" width="1476" fill="#000000" y="-46.799998" height="561.59998" fill-opacity="1"/><g clip-path="url(#29892171bc)"><path fill="#5ce1e6" d="M 617.015625 430.132812 C 577.195312 430.132812 544.804688 397.738281 544.804688 357.921875 C 544.804688 318.101562 577.195312 285.710938 617.015625 285.710938 C 656.832031 285.710938 689.226562 318.101562 689.226562 357.921875 C 689.226562 397.738281 656.832031 430.132812 617.015625 430.132812 Z M 617.015625 290.757812 C 579.980469 290.757812 549.851562 320.886719 549.851562 357.921875 C 549.851562 394.957031 579.980469 425.082031 617.015625 425.082031 C 654.046875 425.082031 684.175781 394.957031 684.175781 357.921875 C 684.175781 320.886719 654.046875 290.757812 617.015625 290.757812 Z M 617.015625 290.757812 " fill-opacity="1" fill-rule="nonzero"/></g><g clip-path="url(#4c28d33b36)"><path fill="#38b6ff" d="M 452.886719 430.132812 C 413.066406 430.132812 380.675781 397.738281 380.675781 357.921875 C 380.675781 318.101562 413.066406 285.710938 452.886719 285.710938 C 492.703125 285.710938 525.097656 318.101562 525.097656 357.921875 C 525.097656 397.738281 492.703125 430.132812 452.886719 430.132812 Z M 452.886719 290.757812 C 415.851562 290.757812 385.722656 320.890625 385.722656 357.921875 C 385.722656 394.957031 415.851562 425.082031 452.886719 425.082031 C 489.917969 425.082031 520.046875 394.957031 520.046875 357.921875 C 520.046875 320.890625 489.917969 290.757812 452.886719 290.757812 Z M 452.886719 290.757812 " fill-opacity="1" fill-rule="nonzero"/></g><g clip-path="url(#0bd41e0b71)"><path fill="#38b6ff" d="M 777.105469 430.132812 C 737.289062 430.132812 704.894531 397.738281 704.894531 357.921875 C 704.894531 318.101562 737.289062 285.710938 777.105469 285.710938 C 816.925781 285.710938 849.316406 318.101562 849.316406 357.921875 C 849.316406 397.738281 816.925781 430.132812 777.105469 430.132812 Z M 777.105469 290.757812 C 740.074219 290.757812 709.945312 320.890625 709.945312 357.921875 C 709.945312 394.957031 740.074219 425.082031 777.105469 425.082031 C 814.140625 425.082031 844.269531 394.957031 844.269531 357.921875 C 844.269531 320.890625 814.140625 290.757812 777.105469 290.757812 Z M 777.105469 290.757812 " fill-opacity="1" fill-rule="nonzero"/></g><path fill="#5ce1e6" d="M 172.441406 90.34375 L 189.796875 106.191406 L 167.382812 113.300781 Z M 172.441406 90.34375 " fill-opacity="1" fill-rule="nonzero"/><g clip-path="url(#73e04d99eb)"><path fill="#5ce1e6" d="M 54.191406 81.351562 L 70.789062 64.710938 L 76.894531 87.417969 Z M 54.191406 81.351562 " fill-opacity="1" fill-rule="nonzero"/></g><path fill="#5ce1e6" d="M 118.878906 260.824219 L 136.398438 245.183594 L 141.207031 268.183594 Z M 118.878906 260.824219 " fill-opacity="1" fill-rule="nonzero"/><path fill="#5ce1e6" d="M 177.167969 331.15625 L 199.582031 324.046875 L 194.523438 347.003906 Z M 177.167969 331.15625 " fill-opacity="1" fill-rule="nonzero"/><path fill="#5ce1e6" d="M 196.402344 448.28125 L 172.902344 448.28125 L 184.652344 427.917969 Z M 196.402344 448.28125 " fill-opacity="1" fill-rule="nonzero"/><path fill="#5ce1e6" d="M 76.058594 286.539062 L 56.699219 273.242188 L 77.898438 263.082031 Z M 76.058594 286.539062 " fill-opacity="1" fill-rule="nonzero"/><path fill="#ffffff" d="M 112.269531 50.160156 L 119.464844 27.789062 L 135.269531 45.226562 Z M 112.269531 50.160156 " fill-opacity="1" fill-rule="nonzero"/><path fill="#ffffff" d="M 157.933594 191.160156 L 180.347656 184.050781 L 175.328125 207.007812 Z M 157.933594 191.160156 " fill-opacity="1" fill-rule="nonzero"/><path fill="#ffffff" d="M 104.285156 337.679688 L 98.179688 314.972656 L 120.886719 321.078125 Z M 104.285156 337.679688 " fill-opacity="1" fill-rule="nonzero"/><g clip-path="url(#7b1300d8d7)"><path fill="#ffffff" d="M 214.925781 404.082031 L 214.925781 380.582031 L 235.292969 392.332031 Z M 214.925781 404.082031 " fill-opacity="1" fill-rule="nonzero"/></g><path fill="#ffffff" d="M 90.402344 458.984375 L 82.707031 436.78125 L 105.789062 441.214844 Z M 90.402344 458.984375 " fill-opacity="1" fill-rule="nonzero"/><path fill="#ffffff" d="M 82.707031 191.328125 L 105.789062 195.757812 L 90.402344 213.53125 Z M 82.707031 191.328125 " fill-opacity="1" fill-rule="nonzero"/><path fill="#ffffff" d="M 207.484375 149.050781 L 229.101562 158.335938 L 210.246094 172.386719 Z M 207.484375 149.050781 " fill-opacity="1" fill-rule="nonzero"/><path fill="#38b6ff" d="M 195.816406 38.03125 L 174.242188 28.75 L 193.058594 14.699219 Z M 195.816406 38.03125 " fill-opacity="1" fill-rule="nonzero"/><path fill="#38b6ff" d="M 98.179688 127.726562 L 121.679688 127.726562 L 109.929688 148.089844 Z M 98.179688 127.726562 " fill-opacity="1" fill-rule="nonzero"/><path fill="#38b6ff" d="M 56.03125 -14.027344 L 79.488281 -12.355469 L 66.316406 7.132812 Z M 56.03125 -14.027344 " fill-opacity="1" fill-rule="nonzero"/><path fill="#38b6ff" d="M 131.800781 385.390625 L 153 375.230469 L 151.160156 398.6875 Z M 131.800781 385.390625 " fill-opacity="1" fill-rule="nonzero"/><path fill="#38b6ff" d="M 184.652344 274.414062 L 190.757812 251.707031 L 207.359375 268.351562 Z M 184.652344 274.414062 " fill-opacity="1" fill-rule="nonzero"/><path fill="#38b6ff" d="M 74.46875 367.871094 L 90.277344 385.308594 L 67.277344 390.285156 Z M 74.46875 367.871094 " fill-opacity="1" fill-rule="nonzero"/><path fill="#5ce1e6" d="M 1130.148438 453.578125 L 1116.976562 473.023438 L 1106.691406 451.863281 Z M 1130.148438 453.578125 " fill-opacity="1" fill-rule="nonzero"/><path fill="#5ce1e6" d="M 1064.960938 329.347656 L 1047.605469 313.5 L 1070.019531 306.390625 Z M 1064.960938 329.347656 " fill-opacity="1" fill-rule="nonzero"/><g clip-path="url(#ab3bc39338)"><path fill="#5ce1e6" d="M 1183.210938 338.335938 L 1166.613281 354.980469 L 1160.507812 332.273438 Z M 1183.210938 338.335938 " fill-opacity="1" fill-rule="nonzero"/></g><path fill="#5ce1e6" d="M 1028.789062 444.589844 L 1012.1875 461.191406 L 1006.082031 438.484375 Z M 1028.789062 444.589844 " fill-opacity="1" fill-rule="nonzero"/><path fill="#5ce1e6" d="M 1118.523438 158.867188 L 1101.003906 174.503906 L 1096.195312 151.507812 Z M 1118.523438 158.867188 " fill-opacity="1" fill-rule="nonzero"/><path fill="#5ce1e6" d="M 1060.234375 88.53125 L 1037.820312 95.640625 L 1042.882812 72.683594 Z M 1060.234375 88.53125 " fill-opacity="1" fill-rule="nonzero"/><path fill="#5ce1e6" d="M 1161.34375 133.148438 L 1180.703125 146.445312 L 1159.503906 156.609375 Z M 1161.34375 133.148438 " fill-opacity="1" fill-rule="nonzero"/><path fill="#ffffff" d="M 1125.132812 369.53125 L 1117.9375 391.902344 L 1102.132812 374.464844 Z M 1125.132812 369.53125 " fill-opacity="1" fill-rule="nonzero"/><path fill="#ffffff" d="M 1079.46875 228.53125 L 1057.054688 235.640625 L 1062.074219 212.683594 Z M 1079.46875 228.53125 " fill-opacity="1" fill-rule="nonzero"/><path fill="#ffffff" d="M 1133.117188 82.007812 L 1139.222656 104.714844 L 1116.515625 98.609375 Z M 1133.117188 82.007812 " fill-opacity="1" fill-rule="nonzero"/><g clip-path="url(#e3c533ece9)"><path fill="#ffffff" d="M 1022.476562 15.605469 L 1022.476562 39.105469 L 1002.109375 27.355469 Z M 1022.476562 15.605469 " fill-opacity="1" fill-rule="nonzero"/></g><path fill="#ffffff" d="M 1154.695312 228.363281 L 1131.613281 223.929688 L 1147 206.160156 Z M 1154.695312 228.363281 " fill-opacity="1" fill-rule="nonzero"/><path fill="#ffffff" d="M 1029.917969 270.636719 L 1008.300781 261.355469 L 1027.160156 247.304688 Z M 1029.917969 270.636719 " fill-opacity="1" fill-rule="nonzero"/><path fill="#38b6ff" d="M 1041.585938 381.65625 L 1063.160156 390.941406 L 1044.34375 404.988281 Z M 1041.585938 381.65625 " fill-opacity="1" fill-rule="nonzero"/><path fill="#38b6ff" d="M 1139.222656 291.964844 L 1115.722656 291.964844 L 1127.472656 271.601562 Z M 1139.222656 291.964844 " fill-opacity="1" fill-rule="nonzero"/><path fill="#38b6ff" d="M 1181.371094 433.71875 L 1157.914062 432.042969 L 1171.085938 412.558594 Z M 1181.371094 433.71875 " fill-opacity="1" fill-rule="nonzero"/><path fill="#38b6ff" d="M 1105.605469 34.296875 L 1084.402344 44.460938 L 1086.242188 21 Z M 1105.605469 34.296875 " fill-opacity="1" fill-rule="nonzero"/><path fill="#38b6ff" d="M 1052.75 145.277344 L 1046.644531 167.980469 L 1030.042969 151.339844 Z M 1052.75 145.277344 " fill-opacity="1" fill-rule="nonzero"/><path fill="#38b6ff" d="M 1162.933594 51.820312 L 1147.125 34.382812 L 1170.125 29.40625 Z M 1162.933594 51.820312 " fill-opacity="1" fill-rule="nonzero"/><g clip-path="url(#fedd049571)"><path fill="#ffffff" d="M 469.117188 391.472656 C 468.703125 391.472656 468.28125 391.457031 467.851562 391.425781 C 465.523438 391.253906 462.964844 390.613281 460.796875 389.34375 C 457.753906 387.566406 455.527344 384.585938 453.226562 381.210938 C 452.886719 380.710938 452.539062 380.191406 452.195312 379.679688 C 450.191406 376.703125 448.15625 373.683594 446.160156 371.898438 C 444.566406 370.472656 443.011719 369.855469 441.582031 369.75 C 441.433594 369.738281 441.285156 369.734375 441.136719 369.734375 C 440.648438 369.734375 440.171875 369.789062 439.710938 369.898438 C 438.976562 370.066406 438.277344 370.359375 437.628906 370.757812 C 437.679688 370.820312 437.730469 370.882812 437.78125 370.945312 C 439.890625 373.589844 441.285156 377.777344 440.070312 379.789062 C 439.484375 380.753906 438.382812 381.121094 437.292969 381.121094 C 437.171875 381.121094 437.050781 381.113281 436.933594 381.105469 C 435.710938 381.015625 434.414062 380.484375 433.652344 379.617188 C 432.101562 377.859375 432.933594 375.042969 434.160156 373.070312 C 434.753906 372.113281 435.476562 371.28125 436.308594 370.617188 C 434.382812 368.691406 431.855469 367.691406 429.054688 367.488281 C 429.023438 367.484375 429.003906 367.484375 428.972656 367.484375 C 428.628906 367.460938 428.28125 367.449219 427.933594 367.449219 C 424.976562 367.449219 421.886719 368.257812 419.78125 369.496094 C 417.449219 370.867188 416.296875 372.777344 415.09375 374.789062 C 415.011719 374.925781 414.863281 375.003906 414.714844 375.003906 C 414.636719 375.003906 414.558594 374.980469 414.488281 374.941406 C 414.28125 374.8125 414.210938 374.542969 414.335938 374.335938 C 415.535156 372.335938 416.789062 370.234375 419.332031 368.738281 C 421.585938 367.410156 424.832031 366.566406 427.933594 366.566406 C 428.300781 366.566406 428.667969 366.578125 429.03125 366.605469 L 429.035156 366.605469 C 429.0625 366.605469 429.089844 366.609375 429.117188 366.609375 C 432.144531 366.832031 434.921875 367.933594 437.03125 370.09375 C 437.792969 369.601562 438.628906 369.242188 439.515625 369.039062 C 440.039062 368.917969 440.578125 368.851562 441.136719 368.851562 C 441.304688 368.851562 441.476562 368.859375 441.648438 368.871094 C 443.296875 368.992188 445.03125 369.703125 446.75 371.242188 C 448.84375 373.117188 450.945312 376.246094 452.925781 379.1875 C 453.269531 379.703125 453.617188 380.214844 453.957031 380.714844 C 456.265625 384.097656 458.390625 386.917969 461.242188 388.585938 C 463.269531 389.769531 465.6875 390.382812 467.914062 390.546875 C 468.324219 390.578125 468.726562 390.589844 469.117188 390.589844 C 469.582031 390.589844 470.03125 390.570312 470.460938 390.53125 C 473.207031 390.277344 474.90625 389.25 475.515625 387.738281 C 475.871094 386.859375 475.886719 385.777344 475.746094 384.566406 L 475.742188 384.566406 L 475.746094 384.566406 C 476.042969 384.507812 476.335938 384.445312 476.605469 384.375 L 476.605469 384.378906 L 476.609375 384.375 C 476.773438 385.714844 476.765625 387 476.332031 388.070312 C 475.542969 390.03125 473.425781 391.140625 470.539062 391.40625 C 470.085938 391.449219 469.609375 391.472656 469.117188 391.472656 M 436.902344 371.265625 C 436.140625 371.871094 435.464844 372.636719 434.90625 373.535156 C 433.6875 375.496094 433.199219 377.777344 434.3125 379.035156 C 434.886719 379.691406 435.945312 380.152344 436.996094 380.226562 C 437.101562 380.234375 437.203125 380.238281 437.304688 380.238281 C 438.210938 380.238281 438.957031 379.929688 439.316406 379.332031 C 440.210938 377.855469 439.1875 374.121094 437.089844 371.492188 C 437.03125 371.417969 436.96875 371.339844 436.90625 371.265625 L 436.902344 371.265625 M 476.609375 384.375 L 476.609375 384.375 M 475.617188 383.695312 C 475.871094 383.644531 476.113281 383.589844 476.339844 383.535156 C 476.113281 383.589844 475.871094 383.644531 475.617188 383.695312 " fill-opacity="1" fill-rule="nonzero"/></g><path fill="#ffffff" d="M 471.769531 353.03125 C 471.582031 353.03125 471.421875 352.890625 471.40625 352.699219 C 471.378906 352.414062 471.355469 352.195312 471.335938 352.050781 L 471.332031 352.03125 L 471.332031 352.035156 C 471.328125 351.980469 471.265625 351.507812 471.148438 350.621094 L 471.148438 350.605469 L 471.144531 350.597656 C 471.132812 350.496094 471.128906 350.394531 471.132812 350.292969 C 471.140625 350.09375 471.300781 349.9375 471.496094 349.9375 C 471.503906 349.9375 471.503906 349.9375 471.507812 349.9375 C 471.710938 349.941406 471.871094 350.109375 471.863281 350.3125 C 471.863281 350.378906 471.863281 350.445312 471.871094 350.515625 L 471.875 350.527344 C 471.992188 351.410156 472.054688 351.890625 472.058594 351.960938 C 472.082031 352.117188 472.105469 352.339844 472.132812 352.628906 C 472.152344 352.832031 472.003906 353.011719 471.800781 353.027344 C 471.792969 353.03125 471.777344 353.03125 471.769531 353.03125 " fill-opacity="1" fill-rule="nonzero"/><path fill="#ffffff" d="M 471.84375 343.328125 C 471.800781 343.316406 471.757812 343.3125 471.710938 343.320312 C 471.609375 343.335938 471.515625 343.394531 471.457031 343.480469 C 471.414062 343.554688 471.398438 343.640625 471.367188 343.71875 C 471.324219 343.832031 471.257812 343.9375 471.246094 344.054688 C 471.238281 344.140625 471.265625 344.230469 471.320312 344.300781 C 471.375 344.371094 471.453125 344.417969 471.539062 344.4375 C 471.636719 344.457031 471.746094 344.433594 471.828125 344.371094 C 471.96875 344.261719 472.03125 344.0625 472.082031 343.898438 C 472.109375 343.800781 472.140625 343.703125 472.121094 343.601562 C 472.105469 343.527344 472.0625 343.457031 472 343.40625 C 471.957031 343.367188 471.902344 343.339844 471.84375 343.328125 " fill-opacity="1" fill-rule="nonzero"/><path fill="#ffffff" d="M 474.460938 380.648438 C 474.257812 380.628906 474.078125 380.773438 474.058594 380.972656 C 474.039062 381.179688 473.921875 381.375 473.835938 381.558594 C 473.753906 381.742188 473.835938 381.960938 474.019531 382.042969 C 474.203125 382.125 474.421875 382.042969 474.503906 381.859375 C 474.574219 381.703125 474.652344 381.542969 474.707031 381.378906 C 474.746094 381.273438 474.773438 381.160156 474.785156 381.046875 C 474.804688 380.847656 474.660156 380.667969 474.460938 380.648438 " fill-opacity="1" fill-rule="nonzero"/><path fill="#ffffff" d="M 475.6875 380.515625 C 475.558594 380.492188 475.421875 380.546875 475.339844 380.652344 C 475.292969 380.714844 475.285156 380.777344 475.261719 380.847656 C 475.226562 380.976562 475.15625 381.082031 475.183594 381.21875 C 475.207031 381.332031 475.285156 381.429688 475.390625 381.476562 C 475.5 381.527344 475.632812 381.519531 475.734375 381.453125 C 475.84375 381.386719 475.902344 381.257812 475.941406 381.140625 C 475.984375 381.003906 476.027344 380.851562 475.960938 380.71875 C 475.910156 380.609375 475.804688 380.53125 475.6875 380.515625 " fill-opacity="1" fill-rule="nonzero"/><g clip-path="url(#3d75c55814)"><path fill="#ffffff" d="M 472.8125 384.980469 C 472.179688 384.980469 471.652344 384.789062 471.265625 384.0625 C 471.007812 383.574219 470.8125 382.84375 470.464844 381.335938 C 470.34375 380.816406 470.207031 380.203125 470.039062 379.464844 C 469.792969 378.363281 469.480469 376.980469 469.078125 375.253906 C 467.683594 369.214844 465.203125 358.867188 462.671875 348.332031 C 462.929688 348.402344 463.242188 348.445312 463.605469 348.453125 C 466.109375 358.875 468.554688 369.074219 469.9375 375.054688 C 470.335938 376.785156 470.652344 378.171875 470.898438 379.269531 C 471.066406 380.007812 471.203125 380.621094 471.324219 381.136719 C 471.679688 382.683594 471.851562 383.289062 472.042969 383.652344 C 472.214844 383.972656 472.375 384.097656 472.800781 384.097656 C 473.019531 384.097656 473.304688 384.066406 473.695312 384.011719 C 473.8125 383.996094 473.9375 383.976562 474.0625 383.960938 C 474.554688 383.886719 475.105469 383.796875 475.617188 383.695312 C 475.667969 383.992188 475.710938 384.28125 475.746094 384.566406 C 475.210938 384.671875 474.660156 384.761719 474.191406 384.832031 C 474.0625 384.851562 473.9375 384.867188 473.816406 384.882812 C 473.460938 384.933594 473.125 384.980469 472.8125 384.980469 M 476.605469 384.375 L 476.609375 384.375 C 476.605469 384.375 476.605469 384.375 476.605469 384.375 M 476.609375 384.375 C 476.574219 384.085938 476.53125 383.792969 476.480469 383.5 C 476.433594 383.511719 476.386719 383.523438 476.339844 383.535156 C 476.683594 383.449219 476.984375 383.363281 477.207031 383.269531 C 477.613281 383.097656 477.695312 383.171875 477.355469 380.917969 L 477.335938 380.777344 C 477 378.558594 476.414062 374.539062 475.828125 370.515625 L 472.125 346.949219 C 472.421875 346.820312 472.695312 346.664062 472.945312 346.488281 L 472.945312 346.492188 L 476.699219 370.378906 L 476.699219 370.382812 C 477.285156 374.410156 477.871094 378.429688 478.207031 380.644531 L 478.226562 380.789062 C 478.515625 382.714844 478.71875 383.582031 477.550781 384.078125 C 477.296875 384.183594 476.972656 384.285156 476.609375 384.375 M 472.945312 346.492188 L 472.945312 346.492188 M 462.914062 347.46875 C 462.859375 347.457031 462.808594 347.445312 462.757812 347.429688 C 462.632812 347.390625 462.519531 347.324219 462.410156 347.242188 C 462.410156 347.238281 462.410156 347.238281 462.410156 347.234375 C 462.554688 347.339844 462.726562 347.417969 462.914062 347.46875 M 472.132812 345.972656 C 472.429688 345.808594 472.640625 345.617188 472.769531 345.371094 L 472.777344 345.40625 C 472.675781 345.550781 472.539062 345.695312 472.367188 345.832031 C 472.296875 345.878906 472.21875 345.925781 472.132812 345.972656 " fill-opacity="1" fill-rule="nonzero"/></g><path fill="#ffffff" d="M 475.746094 384.566406 C 475.710938 384.28125 475.667969 383.992188 475.617188 383.695312 C 475.871094 383.644531 476.113281 383.589844 476.339844 383.535156 C 476.386719 383.523438 476.433594 383.511719 476.480469 383.5 C 476.53125 383.792969 476.574219 384.085938 476.609375 384.375 L 476.605469 384.375 C 476.335938 384.445312 476.042969 384.507812 475.746094 384.566406 " fill-opacity="1" fill-rule="nonzero"/><path fill="#ffffff" d="M 463.742188 348.453125 C 463.695312 348.453125 463.652344 348.453125 463.605469 348.453125 C 463.605469 348.449219 463.605469 348.449219 463.605469 348.445312 L 463.601562 348.445312 L 463.605469 348.445312 C 463.535156 348.148438 463.460938 347.851562 463.390625 347.550781 L 463.390625 347.554688 C 463.21875 347.539062 463.0625 347.511719 462.914062 347.46875 C 463.210938 347.535156 463.53125 347.570312 463.867188 347.570312 C 464.09375 347.570312 464.332031 347.554688 464.578125 347.523438 L 465.730469 347.367188 L 470.847656 346.441406 C 471.378906 346.300781 471.808594 346.144531 472.132812 345.972656 C 472.085938 345.996094 472.035156 346.023438 471.984375 346.046875 L 472.125 346.945312 L 472.125 346.949219 C 471.804688 347.089844 471.460938 347.199219 471.085938 347.285156 L 465.589844 348.28125 C 465.378906 348.3125 465.175781 348.34375 464.980469 348.363281 C 464.519531 348.425781 464.105469 348.453125 463.742188 348.453125 M 462.671875 348.332031 C 462.617188 348.316406 462.566406 348.300781 462.515625 348.28125 C 461.863281 347.988281 461.398438 347.574219 461.121094 347.046875 C 460.832031 346.421875 460.597656 345.539062 460.417969 344.402344 C 460.714844 344.484375 461.015625 344.550781 461.324219 344.59375 C 461.410156 345.171875 461.527344 345.660156 461.671875 346.066406 L 461.84375 346.480469 C 461.964844 346.734375 462.101562 346.941406 462.253906 347.101562 C 462.304688 347.152344 462.355469 347.199219 462.410156 347.242188 C 462.496094 347.597656 462.582031 347.953125 462.667969 348.3125 C 462.667969 348.320312 462.671875 348.324219 462.671875 348.332031 M 472.945312 346.488281 L 472.777344 345.40625 C 472.863281 345.277344 472.921875 345.148438 472.953125 345.015625 C 473.039062 344.636719 472.921875 343.6875 472.59375 342.171875 C 472.871094 341.996094 473.128906 341.808594 473.359375 341.613281 C 473.585938 342.574219 473.71875 343.207031 473.769531 343.519531 C 473.839844 344.355469 473.8125 344.984375 473.683594 345.414062 C 473.601562 345.828125 473.386719 346.164062 473.042969 346.414062 C 473.011719 346.441406 472.980469 346.464844 472.945312 346.488281 " fill-opacity="1" fill-rule="nonzero"/><path fill="#ffffff" d="M 463.605469 348.453125 C 463.242188 348.445312 462.929688 348.402344 462.671875 348.332031 C 462.671875 348.324219 462.667969 348.320312 462.667969 348.3125 C 462.582031 347.953125 462.496094 347.597656 462.410156 347.242188 C 462.519531 347.324219 462.632812 347.390625 462.757812 347.429688 C 462.808594 347.445312 462.859375 347.457031 462.914062 347.46875 C 463.0625 347.511719 463.21875 347.539062 463.390625 347.554688 L 463.390625 347.550781 C 463.460938 347.851562 463.535156 348.148438 463.605469 348.445312 L 463.601562 348.445312 L 463.605469 348.445312 C 463.605469 348.449219 463.605469 348.449219 463.605469 348.453125 M 463.605469 348.445312 L 463.605469 348.445312 M 472.125 346.949219 L 472.125 346.945312 L 471.984375 346.046875 C 472.035156 346.023438 472.085938 345.996094 472.132812 345.972656 C 472.21875 345.925781 472.296875 345.878906 472.367188 345.832031 C 472.539062 345.695312 472.675781 345.550781 472.777344 345.40625 L 472.945312 346.488281 C 472.695312 346.664062 472.421875 346.820312 472.125 346.949219 " fill-opacity="1" fill-rule="nonzero"/><path fill="#ffffff" d="M 460.683594 343.578125 C 460.542969 343.546875 460.410156 343.515625 460.289062 343.476562 C 460.289062 343.472656 460.289062 343.464844 460.289062 343.457031 C 460.402344 343.503906 460.535156 343.542969 460.683594 343.578125 " fill-opacity="1" fill-rule="nonzero"/><g clip-path="url(#a04e922f38)"><path fill="#ffffff" d="M 462.378906 344.671875 C 462.019531 344.671875 461.667969 344.644531 461.324219 344.59375 C 461.277344 344.308594 461.242188 344.003906 461.210938 343.679688 C 461.015625 343.648438 460.839844 343.617188 460.683594 343.578125 C 461.191406 343.691406 461.839844 343.757812 462.621094 343.78125 C 465.550781 343.679688 468.246094 343.132812 470.714844 342.132812 C 471.683594 341.757812 472.511719 341.230469 473.203125 340.550781 C 473.683594 340.011719 473.984375 339.410156 474.097656 338.753906 C 474.289062 337.550781 474.128906 335.921875 473.613281 333.871094 C 473.089844 331.394531 472.394531 329.371094 471.53125 327.808594 C 470.480469 326.097656 468.894531 325.238281 466.769531 325.238281 C 466.6875 325.238281 466.601562 325.242188 466.515625 325.242188 L 466.390625 325.242188 C 463.714844 325.308594 461.316406 325.878906 459.199219 326.957031 C 458.3125 327.460938 457.683594 327.988281 457.316406 328.542969 C 456.917969 329.113281 456.648438 329.734375 456.503906 330.402344 C 456.140625 332.199219 456.117188 333.964844 456.429688 335.695312 C 456.652344 337.625 457.113281 339.386719 457.8125 340.980469 C 458.378906 342.097656 458.957031 342.808594 459.546875 343.105469 C 459.71875 343.253906 459.96875 343.378906 460.289062 343.476562 C 460.328125 343.800781 460.371094 344.109375 460.417969 344.402344 C 460.007812 344.285156 459.605469 344.128906 459.214844 343.933594 C 458.585938 343.660156 457.925781 342.945312 457.234375 341.789062 C 456.5625 340.59375 456.039062 338.84375 455.660156 336.546875 C 455.265625 333.824219 455.222656 331.898438 455.535156 330.773438 C 455.804688 329.449219 456.15625 328.542969 456.585938 328.046875 C 457.164062 327.300781 457.765625 326.753906 458.394531 326.40625 C 460.476562 325.191406 463.0625 324.511719 466.152344 324.363281 L 466.390625 324.363281 C 466.480469 324.359375 466.566406 324.359375 466.652344 324.359375 C 469.203125 324.359375 471.078125 325.355469 472.277344 327.34375 C 473.21875 329.058594 473.953125 331.171875 474.472656 333.675781 C 474.730469 334.667969 474.921875 335.8125 475.050781 337.101562 C 475.074219 338.121094 475.042969 338.722656 474.964844 338.914062 C 474.785156 339.964844 474.25 340.863281 473.359375 341.613281 C 473.324219 341.457031 473.285156 341.292969 473.246094 341.121094 C 473.144531 340.921875 473.046875 340.816406 472.945312 340.804688 L 472.929688 340.816406 C 472.636719 341.070312 472.457031 341.214844 472.382812 341.242188 C 472.460938 341.574219 472.53125 341.882812 472.59375 342.171875 C 472.238281 342.390625 471.851562 342.59375 471.425781 342.785156 C 468.488281 343.980469 465.605469 344.605469 462.765625 344.660156 C 462.636719 344.667969 462.503906 344.671875 462.378906 344.671875 " fill-opacity="1" fill-rule="nonzero"/></g><path fill="#ffffff" d="M 461.324219 344.59375 C 461.015625 344.550781 460.714844 344.484375 460.417969 344.402344 C 460.371094 344.109375 460.328125 343.800781 460.289062 343.476562 C 460.410156 343.515625 460.542969 343.546875 460.683594 343.578125 C 460.839844 343.617188 461.015625 343.648438 461.210938 343.679688 C 461.242188 344.003906 461.277344 344.308594 461.324219 344.59375 M 472.59375 342.171875 C 472.53125 341.882812 472.460938 341.574219 472.382812 341.242188 C 472.457031 341.214844 472.636719 341.070312 472.929688 340.816406 L 472.945312 340.804688 C 473.046875 340.816406 473.144531 340.921875 473.246094 341.121094 C 473.285156 341.292969 473.324219 341.457031 473.359375 341.613281 C 473.128906 341.808594 472.871094 341.996094 472.59375 342.171875 " fill-opacity="1" fill-rule="nonzero"/><path fill="#ffffff" d="M 474.628906 333.976562 C 472.964844 334.671875 471.273438 335.375 469.105469 336.011719 C 466.945312 336.640625 464.300781 337.203125 461.976562 337.410156 C 459.644531 337.621094 457.644531 337.472656 455.691406 337.328125 C 455.382812 337.308594 455.152344 337.039062 455.175781 336.730469 C 455.199219 336.421875 455.464844 336.191406 455.773438 336.214844 C 457.734375 336.359375 459.648438 336.5 461.878906 336.300781 C 464.113281 336.097656 466.683594 335.554688 468.792969 334.9375 C 470.894531 334.324219 472.535156 333.640625 474.199219 332.945312 C 474.484375 332.824219 474.8125 332.960938 474.929688 333.242188 C 475.046875 333.527344 474.914062 333.855469 474.628906 333.976562 " fill-opacity="1" fill-rule="nonzero"/><path fill="#ffffff" d="M 460.171875 326.289062 L 460.03125 334.984375 L 460.03125 334.996094 L 459.617188 343.265625 C 459.609375 343.449219 459.449219 343.59375 459.261719 343.585938 C 459.078125 343.574219 458.933594 343.417969 458.941406 343.230469 L 459.355469 334.964844 L 459.355469 334.972656 L 459.496094 326.277344 C 459.5 326.089844 459.652344 325.941406 459.839844 325.945312 C 460.027344 325.949219 460.175781 326.101562 460.171875 326.289062 " fill-opacity="1" fill-rule="nonzero"/><path fill="#ffffff" d="M 462.6875 325.582031 C 462.6875 328.375 462.6875 331.175781 462.582031 334.242188 C 462.472656 337.304688 462.253906 340.625 462.035156 343.945312 C 462.023438 344.132812 461.863281 344.273438 461.675781 344.261719 C 461.488281 344.25 461.347656 344.085938 461.359375 343.898438 C 461.578125 340.582031 461.792969 337.265625 461.902344 334.214844 C 462.011719 331.164062 462.007812 328.375 462.007812 325.582031 C 462.007812 325.394531 462.160156 325.242188 462.347656 325.242188 C 462.535156 325.242188 462.6875 325.394531 462.6875 325.582031 " fill-opacity="1" fill-rule="nonzero"/><g clip-path="url(#0bcfb6c25d)"><path fill="#ffffff" d="M 465.125 324.953125 C 465.164062 328.492188 465.203125 332.042969 465.089844 335.179688 C 464.972656 338.316406 464.703125 341.039062 464.433594 343.746094 C 464.414062 343.933594 464.246094 344.070312 464.0625 344.050781 C 463.875 344.03125 463.738281 343.867188 463.757812 343.679688 C 464.027344 340.96875 464.296875 338.269531 464.410156 335.152344 C 464.527344 332.035156 464.484375 328.503906 464.445312 324.960938 C 464.445312 324.773438 464.59375 324.617188 464.78125 324.617188 C 464.96875 324.613281 465.121094 324.765625 465.125 324.953125 " fill-opacity="1" fill-rule="nonzero"/></g><g clip-path="url(#da46c36b2c)"><path fill="#ffffff" d="M 467.710938 325.078125 C 467.777344 328.960938 467.839844 332.855469 467.757812 335.921875 C 467.679688 338.992188 467.449219 341.226562 467.21875 343.453125 C 467.199219 343.640625 467.035156 343.773438 466.847656 343.753906 C 466.660156 343.738281 466.527344 343.570312 466.546875 343.382812 C 466.773438 341.160156 467 338.945312 467.082031 335.902344 C 467.164062 332.855469 467.097656 328.976562 467.03125 325.089844 C 467.03125 324.902344 467.179688 324.746094 467.367188 324.742188 C 467.550781 324.738281 467.707031 324.890625 467.710938 325.078125 " fill-opacity="1" fill-rule="nonzero"/></g><path fill="#ffffff" d="M 470.292969 325.851562 C 470.332031 328.4375 470.375 331.027344 470.285156 333.863281 C 470.199219 336.699219 469.980469 339.773438 469.765625 342.835938 C 469.75 343.023438 469.589844 343.164062 469.402344 343.152344 C 469.214844 343.136719 469.074219 342.976562 469.089844 342.789062 C 469.304688 339.722656 469.519531 336.660156 469.609375 333.84375 C 469.695312 331.027344 469.65625 328.449219 469.613281 325.859375 C 469.609375 325.671875 469.761719 325.519531 469.945312 325.515625 C 470.132812 325.515625 470.289062 325.664062 470.292969 325.851562 " fill-opacity="1" fill-rule="nonzero"/><path fill="#ffffff" d="M 472.527344 328.15625 C 472.496094 331.398438 472.464844 334.652344 472.359375 336.964844 C 472.253906 339.28125 472.074219 340.648438 471.894531 342.011719 C 471.871094 342.199219 471.703125 342.328125 471.515625 342.304688 C 471.332031 342.28125 471.199219 342.109375 471.222656 341.925781 C 471.402344 340.570312 471.578125 339.21875 471.679688 336.933594 C 471.785156 334.636719 471.816406 331.398438 471.847656 328.148438 C 471.851562 327.960938 472.003906 327.8125 472.191406 327.8125 C 472.378906 327.816406 472.53125 327.96875 472.527344 328.15625 " fill-opacity="1" fill-rule="nonzero"/><path fill="#ffffff" d="M 458.140625 327.433594 C 458.136719 329.5 458.132812 331.570312 458.0625 333.78125 C 457.988281 335.992188 457.847656 338.339844 457.707031 340.683594 C 457.695312 340.871094 457.535156 341.011719 457.351562 341 C 457.164062 340.988281 457.019531 340.828125 457.03125 340.640625 C 457.171875 338.296875 457.3125 335.960938 457.382812 333.757812 C 457.457031 331.5625 457.460938 329.5 457.464844 327.433594 C 457.464844 327.246094 457.617188 327.09375 457.804688 327.09375 C 457.992188 327.09375 458.140625 327.246094 458.140625 327.433594 " fill-opacity="1" fill-rule="nonzero"/><path fill="#ffffff" d="M 456.769531 338.21875 L 456.746094 338.203125 C 458.632812 339.160156 460.503906 340.105469 462.476562 340.851562 C 464.453125 341.601562 466.535156 342.15625 468.636719 342.714844 C 468.816406 342.765625 468.925781 342.949219 468.875 343.132812 C 468.828125 343.3125 468.644531 343.417969 468.460938 343.371094 C 466.367188 342.8125 464.25 342.25 462.238281 341.488281 C 460.226562 340.722656 458.324219 339.761719 456.4375 338.808594 L 456.410156 338.792969 C 456.253906 338.695312 456.203125 338.484375 456.304688 338.324219 C 456.402344 338.167969 456.613281 338.117188 456.769531 338.21875 " fill-opacity="1" fill-rule="nonzero"/><path fill="#ffffff" d="M 456.175781 334.710938 C 459.207031 336.019531 462.222656 337.320312 465.046875 338.304688 C 467.871094 339.292969 470.503906 339.964844 473.15625 340.640625 C 473.339844 340.6875 473.449219 340.871094 473.402344 341.054688 C 473.355469 341.234375 473.171875 341.34375 472.988281 341.296875 C 470.339844 340.621094 467.679688 339.941406 464.824219 338.945312 C 461.972656 337.949219 458.933594 336.640625 455.90625 335.335938 C 455.734375 335.261719 455.65625 335.0625 455.730469 334.890625 C 455.804688 334.71875 456.003906 334.636719 456.175781 334.710938 " fill-opacity="1" fill-rule="nonzero"/><path fill="#ffffff" d="M 456.226562 331.382812 C 460.164062 332.945312 464.089844 334.5 467.121094 335.554688 C 470.148438 336.605469 472.289062 337.15625 474.4375 337.707031 C 474.617188 337.753906 474.726562 337.9375 474.679688 338.121094 C 474.632812 338.300781 474.449219 338.410156 474.269531 338.363281 C 472.117188 337.8125 469.957031 337.257812 466.898438 336.195312 C 463.847656 335.136719 459.90625 333.574219 455.976562 332.011719 C 455.800781 331.941406 455.714844 331.746094 455.785156 331.570312 C 455.855469 331.398438 456.050781 331.3125 456.226562 331.382812 " fill-opacity="1" fill-rule="nonzero"/><path fill="#ffffff" d="M 457.03125 328.597656 C 460.71875 330.132812 464.398438 331.664062 467.308594 332.707031 C 470.214844 333.75 472.359375 334.304688 474.515625 334.863281 C 474.695312 334.910156 474.804688 335.097656 474.757812 335.277344 C 474.710938 335.460938 474.527344 335.566406 474.34375 335.519531 C 472.1875 334.960938 470.019531 334.398438 467.082031 333.34375 C 464.148438 332.292969 460.453125 330.757812 456.769531 329.226562 C 456.597656 329.152344 456.515625 328.953125 456.585938 328.78125 C 456.660156 328.609375 456.859375 328.527344 457.03125 328.597656 " fill-opacity="1" fill-rule="nonzero"/><path fill="#ffffff" d="M 459.167969 326.421875 C 462.027344 327.617188 464.878906 328.808594 467.261719 329.699219 C 469.640625 330.585938 471.550781 331.171875 473.472656 331.761719 C 473.652344 331.816406 473.753906 332.007812 473.699219 332.1875 C 473.640625 332.363281 473.453125 332.464844 473.273438 332.410156 C 471.355469 331.820312 469.425781 331.230469 467.023438 330.332031 C 464.628906 329.4375 461.761719 328.242188 458.90625 327.046875 C 458.730469 326.976562 458.652344 326.777344 458.722656 326.605469 C 458.796875 326.429688 458.992188 326.351562 459.167969 326.421875 " fill-opacity="1" fill-rule="nonzero"/><path fill="#ffffff" d="M 462.234375 325.097656 C 464.460938 325.929688 466.691406 326.757812 468.441406 327.421875 C 470.195312 328.082031 471.472656 328.574219 472.75 329.0625 L 472.746094 329.0625 C 472.921875 329.128906 473.011719 329.324219 472.945312 329.5 C 472.878906 329.675781 472.683594 329.761719 472.507812 329.695312 L 472.503906 329.695312 C 471.230469 329.207031 469.953125 328.714844 468.203125 328.054688 C 466.453125 327.394531 464.222656 326.5625 461.996094 325.734375 C 461.820312 325.667969 461.730469 325.472656 461.796875 325.296875 C 461.863281 325.121094 462.058594 325.035156 462.234375 325.097656 " fill-opacity="1" fill-rule="nonzero"/><g clip-path="url(#7e726ab0be)"><path fill="#ffffff" d="M 652.042969 334.632812 L 642.738281 340.164062 C 646.054688 343.1875 648.640625 346.652344 650.761719 350.402344 C 652.886719 354.164062 654.535156 358.199219 655.992188 362.375 L 665.34375 356.816406 C 663.890625 352.59375 662.246094 348.523438 660.128906 344.777344 C 658.011719 341.035156 655.414062 337.597656 652.042969 334.632812 Z M 590.71875 332.429688 L 601.921875 339.085938 C 602.425781 339.382812 602.589844 340.03125 602.292969 340.53125 C 602.21875 340.664062 602.117188 340.769531 602 340.851562 C 601.640625 341.15625 601.289062 341.46875 600.945312 341.78125 C 601.683594 342.597656 602.484375 343.070312 603.523438 343.332031 C 604.863281 343.675781 606.628906 343.710938 609.089844 343.683594 C 610.457031 342.308594 611.523438 341.539062 613.738281 340.9375 C 614.996094 340.59375 616.597656 340.320312 618.273438 340.121094 C 620.128906 339.898438 622.117188 339.765625 623.835938 339.726562 C 625.453125 339.691406 626.8125 339.746094 628.023438 339.855469 C 629.265625 339.972656 630.324219 340.144531 631.328125 340.339844 C 631.753906 340.425781 632.226562 340.527344 632.691406 340.628906 C 634.136719 340.9375 635.542969 341.242188 637.054688 341.289062 C 638.050781 341.324219 639.128906 341.25 640.101562 341.148438 C 640.273438 341.128906 640.441406 341.109375 640.609375 341.089844 C 640.519531 341.011719 640.425781 340.933594 640.332031 340.851562 C 640.21875 340.769531 640.117188 340.664062 640.039062 340.53125 C 639.742188 340.03125 639.910156 339.382812 640.410156 339.085938 L 651.617188 332.429688 L 651.617188 332.433594 C 651.992188 332.210938 652.480469 332.238281 652.832031 332.535156 C 656.691406 335.78125 659.613281 339.585938 661.964844 343.746094 C 664.289062 347.859375 666.046875 352.300781 667.597656 356.894531 C 667.792969 357.371094 667.613281 357.929688 667.15625 358.199219 L 655.953125 364.855469 C 655.890625 364.890625 655.820312 364.921875 655.75 364.945312 C 655.199219 365.128906 654.601562 364.832031 654.414062 364.28125 L 654.28125 363.886719 C 653.511719 364.738281 652.699219 365.492188 651.835938 366.171875 C 650.902344 366.902344 649.914062 367.539062 648.855469 368.101562 C 649.703125 369.117188 649.992188 370.34375 649.863281 371.523438 C 649.785156 372.234375 649.554688 372.925781 649.195312 373.546875 C 648.835938 374.171875 648.351562 374.71875 647.773438 375.136719 C 646.976562 375.71875 646.003906 376.054688 644.945312 376.011719 C 644.964844 376.207031 644.976562 376.40625 644.976562 376.605469 C 644.976562 378.039062 644.394531 379.339844 643.457031 380.28125 C 642.515625 381.21875 641.21875 381.800781 639.78125 381.800781 C 639.414062 381.800781 639.050781 381.761719 638.699219 381.683594 C 638.683594 382.539062 638.433594 383.371094 638 384.09375 C 637.550781 384.84375 636.898438 385.476562 636.105469 385.894531 C 635.441406 386.242188 634.679688 386.445312 633.855469 386.445312 C 633.429688 386.445312 633.015625 386.386719 632.621094 386.28125 C 632.519531 387.027344 632.234375 387.726562 631.8125 388.332031 C 631.269531 389.097656 630.496094 389.707031 629.566406 390.03125 C 629.085938 390.199219 628.570312 390.292969 628.035156 390.292969 C 626.824219 390.292969 624.542969 390.109375 622.011719 389.5625 C 620.488281 389.230469 618.871094 388.769531 617.328125 388.140625 L 616.328125 389.390625 C 615.449219 390.492188 614.199219 391.128906 612.898438 391.273438 C 611.597656 391.417969 610.242188 391.066406 609.140625 390.183594 L 609.136719 390.183594 C 608.152344 389.398438 607.535156 388.3125 607.316406 387.160156 C 606.761719 387.457031 606.15625 387.636719 605.53125 387.707031 C 604.246094 387.847656 602.882812 387.511719 601.710938 386.757812 C 601.585938 386.679688 601.46875 386.597656 601.363281 386.511719 C 600.304688 385.679688 599.78125 384.496094 599.691406 383.265625 C 599.679688 383.144531 599.675781 383.015625 599.675781 382.890625 C 599.339844 382.996094 598.996094 383.066406 598.648438 383.105469 C 597.304688 383.253906 595.898438 382.90625 594.855469 382.121094 C 594.824219 382.097656 594.851562 382.113281 594.75 382.035156 L 594.75 382.039062 C 593.613281 381.132812 593.035156 379.871094 592.929688 378.582031 C 592.859375 377.726562 593.007812 376.855469 593.339844 376.070312 C 592.207031 376.078125 591.0625 375.714844 590.109375 374.953125 C 589.007812 374.070312 588.367188 372.820312 588.226562 371.519531 C 588.082031 370.21875 588.433594 368.863281 589.3125 367.761719 L 589.660156 367.332031 C 589.410156 366.738281 589.164062 366.238281 588.8125 365.753906 C 588.546875 365.386719 588.210938 365.007812 587.761719 364.578125 C 587.496094 364.933594 587.027344 365.09375 586.582031 364.945312 C 586.511719 364.921875 586.445312 364.890625 586.382812 364.855469 L 575.175781 358.199219 C 574.722656 357.929688 574.542969 357.371094 574.734375 356.894531 C 576.289062 352.300781 578.046875 347.859375 580.371094 343.746094 C 582.71875 339.585938 585.644531 335.78125 589.503906 332.535156 C 589.855469 332.238281 590.34375 332.210938 590.714844 332.433594 Z M 599.429688 343.257812 C 597.03125 345.742188 595.070312 348.492188 593.410156 351.4375 C 591.464844 354.875 589.917969 358.59375 588.550781 362.449219 C 589.445312 363.222656 590.054688 363.875 590.523438 364.523438 C 590.757812 364.851562 590.953125 365.167969 591.128906 365.496094 L 592.496094 363.785156 C 593.375 362.683594 594.625 362.046875 595.925781 361.902344 C 597.222656 361.757812 598.582031 362.109375 599.679688 362.992188 L 599.6875 362.996094 L 599.6875 362.992188 L 599.695312 362.996094 L 599.742188 363.039062 C 600.585938 363.734375 601.152344 364.648438 601.421875 365.636719 L 601.679688 365.3125 C 603.394531 363.15625 605.453125 362.597656 607.207031 363.019531 C 607.925781 363.191406 608.582031 363.527344 609.140625 363.980469 C 609.695312 364.4375 610.15625 365.011719 610.484375 365.664062 C 611.117188 366.917969 611.269531 368.464844 610.664062 370.011719 C 611.808594 369.984375 612.972656 370.335938 613.933594 371.089844 C 613.984375 371.125 614.03125 371.164062 614.074219 371.207031 C 615.054688 372.1875 615.671875 373.433594 615.8125 374.714844 C 615.953125 375.964844 615.640625 377.234375 614.789062 378.316406 L 614.664062 378.472656 C 615.707031 378.523438 616.746094 378.886719 617.621094 379.589844 C 618.722656 380.472656 619.363281 381.71875 619.507812 383.019531 C 619.636719 384.175781 619.371094 385.375 618.691406 386.402344 C 619.941406 386.871094 621.230469 387.230469 622.457031 387.496094 C 624.816406 388.003906 626.921875 388.175781 628.035156 388.175781 C 628.339844 388.175781 628.621094 388.128906 628.871094 388.039062 C 629.371094 387.863281 629.789062 387.535156 630.082031 387.117188 C 630.378906 386.699219 630.546875 386.191406 630.546875 385.660156 C 630.546875 385.558594 630.542969 385.453125 630.527344 385.347656 C 628.269531 384.753906 626.027344 383.945312 623.800781 382.921875 C 621.378906 381.804688 618.972656 380.433594 616.582031 378.804688 C 616.097656 378.476562 615.976562 377.820312 616.304688 377.339844 C 616.632812 376.855469 617.289062 376.734375 617.769531 377.0625 C 620.0625 378.621094 622.367188 379.933594 624.6875 381.003906 C 626.996094 382.066406 629.320312 382.886719 631.65625 383.457031 C 631.828125 383.5 631.984375 383.585938 632.105469 383.695312 C 632.34375 383.894531 632.617188 384.050781 632.914062 384.160156 C 633.203125 384.269531 633.523438 384.328125 633.855469 384.328125 C 634.328125 384.328125 634.753906 384.21875 635.121094 384.027344 C 635.570312 383.789062 635.933594 383.433594 636.1875 383.011719 C 636.441406 382.585938 636.585938 382.09375 636.585938 381.585938 C 636.585938 381.292969 636.535156 380.996094 636.4375 380.707031 C 631.160156 378.984375 625.3125 376.082031 618.886719 371.996094 C 618.394531 371.683594 618.246094 371.03125 618.558594 370.535156 C 618.871094 370.042969 619.527344 369.898438 620.019531 370.210938 C 626.472656 374.316406 632.308594 377.191406 637.527344 378.835938 C 637.671875 378.882812 637.800781 378.957031 637.90625 379.050781 C 638.167969 379.25 638.457031 379.410156 638.765625 379.515625 C 639.078125 379.625 639.421875 379.683594 639.78125 379.683594 C 640.632812 379.683594 641.402344 379.339844 641.960938 378.78125 C 642.515625 378.226562 642.863281 377.457031 642.863281 376.605469 C 642.863281 376.324219 642.824219 376.054688 642.753906 375.796875 C 642.714844 375.648438 642.664062 375.507812 642.605469 375.375 C 641.109375 374.839844 638.859375 373.789062 635.851562 372.21875 C 632.566406 370.503906 628.394531 368.183594 623.339844 365.253906 C 622.835938 364.964844 622.664062 364.316406 622.953125 363.8125 C 623.246094 363.308594 623.894531 363.136719 624.398438 363.429688 C 629.472656 366.367188 633.617188 368.675781 636.824219 370.351562 C 639.992188 372.003906 642.265625 373.050781 643.640625 373.496094 C 643.703125 373.515625 643.765625 373.539062 643.824219 373.570312 C 644.867188 374.09375 645.832031 373.9375 646.535156 373.425781 C 646.875 373.179688 647.160156 372.859375 647.367188 372.496094 C 647.582031 372.128906 647.71875 371.71875 647.765625 371.300781 C 647.859375 370.421875 647.519531 369.492188 646.550781 368.851562 L 646.542969 368.847656 L 646.535156 368.839844 L 646.515625 368.828125 C 646.503906 368.816406 646.488281 368.804688 646.476562 368.796875 L 646.472656 368.792969 L 646.453125 368.777344 L 646.449219 368.773438 L 646.445312 368.773438 L 646.445312 368.769531 L 646.441406 368.765625 L 646.332031 368.675781 C 646.308594 368.65625 646.28125 368.632812 646.257812 368.613281 C 644.515625 367.144531 642.773438 365.675781 640.9375 364.210938 C 639.035156 362.6875 637.042969 361.175781 634.867188 359.679688 C 630.59375 356.738281 625.535156 353.796875 620.460938 350.855469 C 619.953125 350.945312 619.445312 351.050781 618.921875 351.226562 C 618.289062 351.445312 617.617188 351.78125 616.871094 352.347656 C 616.066406 352.957031 615.125 353.875 614.152344 354.816406 C 613.164062 355.777344 612.152344 356.761719 611.152344 357.554688 C 610.082031 358.40625 609.027344 359.035156 608 359.386719 C 606.875 359.765625 605.78125 359.8125 604.734375 359.449219 L 604.730469 359.449219 C 603.597656 359.054688 602.546875 358.171875 601.988281 356.921875 C 601.523438 355.886719 601.398438 354.609375 601.855469 353.179688 C 602.628906 350.75 605.125 347.90625 607.089844 345.792969 C 605.441406 345.769531 604.128906 345.667969 603 345.382812 C 601.550781 345.015625 600.441406 344.367188 599.429688 343.257812 Z M 599.597656 340.164062 L 590.292969 334.632812 C 586.917969 337.597656 584.320312 341.035156 582.203125 344.777344 C 580.089844 348.523438 578.445312 352.59375 576.988281 356.816406 L 586.167969 362.269531 C 586.207031 362.171875 586.257812 362.078125 586.328125 361.992188 C 586.394531 361.910156 586.46875 361.84375 586.550781 361.785156 C 587.953125 357.820312 589.546875 353.984375 591.574219 350.402344 C 593.691406 346.652344 596.277344 343.1875 599.597656 340.164062 Z M 595.65625 372.835938 C 595.699219 372.78125 595.75 372.730469 595.800781 372.6875 L 598.742188 368.996094 C 598.769531 368.949219 598.804688 368.898438 598.839844 368.855469 L 598.84375 368.855469 C 599.355469 368.214844 599.554688 367.417969 599.46875 366.652344 C 599.386719 365.90625 599.027344 365.1875 598.410156 364.671875 L 598.355469 364.632812 L 598.359375 364.628906 L 598.355469 364.625 C 597.714844 364.117188 596.921875 363.917969 596.15625 364 C 595.390625 364.085938 594.65625 364.460938 594.140625 365.105469 L 594.128906 365.117188 L 594.128906 365.113281 L 591.742188 368.097656 C 591.710938 368.144531 591.671875 368.191406 591.632812 368.234375 L 590.957031 369.074219 C 590.445312 369.71875 590.238281 370.519531 590.324219 371.289062 C 590.410156 372.058594 590.78125 372.792969 591.425781 373.308594 C 592.070312 373.820312 592.867188 374.027344 593.636719 373.941406 C 594.40625 373.855469 595.140625 373.480469 595.65625 372.835938 Z M 610.289062 380.617188 C 610.324219 380.535156 610.371094 380.457031 610.429688 380.382812 C 610.542969 380.242188 610.664062 380.105469 610.789062 379.980469 L 613.128906 377.011719 C 613.617188 376.390625 613.792969 375.664062 613.714844 374.945312 C 613.625 374.160156 613.238281 373.375 612.613281 372.738281 C 611.976562 372.25 611.195312 372.054688 610.445312 372.136719 C 609.75 372.214844 609.085938 372.527344 608.589844 373.0625 L 602.636719 380.535156 C 602.601562 380.632812 602.546875 380.726562 602.480469 380.8125 C 602.417969 380.890625 602.367188 380.964844 602.316406 381.039062 C 601.9375 381.632812 601.742188 382.386719 601.796875 383.109375 C 601.847656 383.78125 602.121094 384.421875 602.667969 384.851562 C 602.730469 384.902344 602.792969 384.945312 602.851562 384.984375 C 603.617188 385.472656 604.492188 385.695312 605.300781 385.605469 C 606.015625 385.527344 606.679688 385.199219 607.160156 384.585938 L 607.890625 383.660156 C 608.023438 383.429688 608.171875 383.207031 608.34375 382.996094 C 608.414062 382.902344 608.5 382.828125 608.59375 382.769531 Z M 609.640625 384.851562 C 609.382812 385.375 609.289062 385.957031 609.351562 386.523438 C 609.4375 387.289062 609.8125 388.023438 610.457031 388.539062 L 610.457031 388.542969 C 611.097656 389.054688 611.898438 389.261719 612.667969 389.175781 C 613.433594 389.089844 614.167969 388.714844 614.683594 388.070312 L 614.6875 388.070312 L 616.121094 386.277344 C 616.164062 386.214844 616.207031 386.160156 616.257812 386.105469 L 616.773438 385.464844 C 617.289062 384.820312 617.492188 384.019531 617.40625 383.25 C 617.324219 382.480469 616.949219 381.746094 616.304688 381.234375 C 615.664062 380.71875 614.863281 380.511719 614.09375 380.597656 C 613.464844 380.667969 612.855469 380.933594 612.375 381.382812 Z M 606.730469 372.007812 C 606.75 371.980469 606.769531 371.953125 606.789062 371.929688 L 606.808594 371.90625 C 606.828125 371.878906 606.851562 371.855469 606.871094 371.832031 L 606.875 371.828125 L 608.023438 370.386719 C 609.082031 369.0625 609.125 367.65625 608.601562 366.613281 C 608.40625 366.222656 608.132812 365.882812 607.808594 365.617188 C 607.488281 365.355469 607.117188 365.164062 606.71875 365.070312 C 605.703125 364.824219 604.457031 365.214844 603.332031 366.625 L 595.683594 376.222656 L 595.636719 376.285156 C 595.191406 376.875 594.976562 377.652344 595.039062 378.417969 C 595.097656 379.15625 595.425781 379.875 596.0625 380.382812 L 596.058594 380.386719 L 596.0625 380.386719 C 596.109375 380.425781 596.039062 380.367188 596.125 380.433594 C 596.742188 380.894531 597.589844 381.097656 598.417969 381.007812 C 599.171875 380.925781 599.890625 380.59375 600.375 379.988281 Z M 642.597656 342.949219 C 642.023438 343.035156 641.242188 343.148438 640.316406 343.246094 C 639.269531 343.355469 638.101562 343.433594 636.992188 343.398438 C 635.265625 343.339844 633.777344 343.019531 632.253906 342.695312 C 631.832031 342.601562 631.410156 342.511719 630.921875 342.414062 C 629.945312 342.222656 628.945312 342.058594 627.835938 341.957031 C 626.695312 341.851562 625.410156 341.800781 623.878906 341.835938 C 622.261719 341.871094 620.351562 342 618.519531 342.21875 C 616.917969 342.410156 615.414062 342.664062 614.289062 342.96875 C 612.066406 343.578125 611.226562 344.46875 609.429688 346.378906 L 609.355469 346.460938 C 607.464844 348.476562 604.589844 351.539062 603.863281 353.816406 C 603.582031 354.703125 603.644531 355.464844 603.914062 356.0625 C 604.222656 356.753906 604.800781 357.242188 605.425781 357.457031 L 605.425781 357.460938 C 606 357.65625 606.636719 357.617188 607.324219 357.386719 C 608.109375 357.121094 608.953125 356.605469 609.839844 355.902344 C 610.769531 355.164062 611.738281 354.222656 612.679688 353.304688 C 613.6875 352.328125 614.664062 351.378906 615.597656 350.671875 C 616.5625 349.9375 617.425781 349.507812 618.238281 349.230469 C 619.03125 348.957031 619.757812 348.832031 620.488281 348.707031 C 620.71875 348.671875 620.96875 348.710938 621.1875 348.835938 L 621.230469 348.859375 C 626.425781 351.875 631.621094 354.886719 636.066406 357.945312 C 638.304688 359.484375 640.332031 361.023438 642.253906 362.554688 C 643.9375 363.902344 645.542969 365.25 647.144531 366.597656 C 648.382812 366.003906 649.503906 365.320312 650.535156 364.511719 C 651.597656 363.679688 652.566406 362.71875 653.472656 361.589844 C 652.183594 358.039062 650.726562 354.621094 648.925781 351.4375 C 647.191406 348.371094 645.136719 345.511719 642.597656 342.949219 Z M 642.597656 342.949219 " fill-opacity="1" fill-rule="nonzero"/></g><g clip-path="url(#4a986e42b3)"><path fill="#ffffff" d="M 820.375 324.429688 L 804.617188 327.460938 L 810.351562 329.984375 L 784.953125 354.5 L 766.675781 351.269531 L 766.085938 351.164062 L 765.707031 351.5625 L 733.855469 384.929688 L 766.789062 353.488281 L 785.148438 357.617188 L 785.871094 357.78125 L 786.476562 357.246094 L 813.4375 333.535156 L 815.121094 339.589844 L 820.375 324.429688 " fill-opacity="1" fill-rule="nonzero"/></g><g clip-path="url(#6ca41585a3)"><path fill="#ffffff" d="M 742.472656 381.152344 L 742.472656 387.5625 L 755.128906 387.5625 L 755.128906 369.070312 L 742.472656 381.152344 " fill-opacity="1" fill-rule="nonzero"/></g><g clip-path="url(#7a9d3facd2)"><path fill="#ffffff" d="M 766.789062 357.941406 L 761.457031 363.03125 L 761.457031 387.5625 L 774.113281 387.5625 L 774.113281 359.589844 L 766.789062 357.941406 " fill-opacity="1" fill-rule="nonzero"/></g><g clip-path="url(#039ecd5ea3)"><path fill="#ffffff" d="M 786.476562 361.699219 L 785.871094 362.234375 L 785.148438 362.070312 L 780.441406 361.011719 L 780.441406 387.5625 L 793.097656 387.5625 L 793.097656 355.875 L 786.476562 361.699219 " fill-opacity="1" fill-rule="nonzero"/></g><g clip-path="url(#5880233dd5)"><path fill="#ffffff" d="M 799.425781 350.3125 L 799.425781 387.5625 L 812.085938 387.5625 L 812.085938 339.179688 L 799.425781 350.3125 " fill-opacity="1" fill-rule="nonzero"/></g></svg>