<svg xmlns="http://www.w3.org/2000/svg" xmlns:xlink="http://www.w3.org/1999/xlink" width="270" zoomAndPan="magnify" viewBox="0 0 202.5 149.999998" height="200" preserveAspectRatio="xMidYMid meet" version="1.0"><defs><clipPath id="62e3a39961"><path d="M 0 0.183594 L 202 0.183594 L 202 149.8125 L 0 149.8125 Z M 0 0.183594 " clip-rule="nonzero"/></clipPath><clipPath id="3741e28353"><path d="M 109 12.191406 L 171 12.191406 L 171 62 L 109 62 Z M 109 12.191406 " clip-rule="nonzero"/></clipPath><clipPath id="6daa941d28"><path d="M 97.390625 28 L 103 28 L 103 37 L 97.390625 37 Z M 97.390625 28 " clip-rule="nonzero"/></clipPath><clipPath id="0b9660c537"><path d="M 42 95 L 48 95 L 48 99.785156 L 42 99.785156 Z M 42 95 " clip-rule="nonzero"/></clipPath><clipPath id="7e8d3eb8fa"><path d="M 36.273438 74 L 42 74 L 42 96 L 36.273438 96 Z M 36.273438 74 " clip-rule="nonzero"/></clipPath><clipPath id="f7122d06aa"><path d="M 46.007812 81.457031 L 52.707031 81.457031 L 52.707031 88.175781 L 46.007812 88.175781 Z M 46.007812 81.457031 " clip-rule="nonzero"/></clipPath><clipPath id="c8e0886790"><path d="M 46.007812 79.46875 L 52.707031 79.46875 L 52.707031 83.351562 L 46.007812 83.351562 Z M 46.007812 79.46875 " clip-rule="nonzero"/></clipPath><clipPath id="7d8dd5eb79"><path d="M 46 79 L 52.730469 79 L 52.730469 84 L 46 84 Z M 46 79 " clip-rule="nonzero"/></clipPath><clipPath id="74eda9aa3d"><path d="M 46 78 L 52.730469 78 L 52.730469 84 L 46 84 Z M 46 78 " clip-rule="nonzero"/></clipPath><clipPath id="29b32a6d1c"><path d="M 48.226562 80.605469 L 51.695312 80.605469 L 51.695312 81.929688 L 48.226562 81.929688 Z M 48.226562 80.605469 " clip-rule="nonzero"/></clipPath><clipPath id="44a31ae008"><path d="M 51.378906 82.554688 C 50.265625 83.1875 48.460938 83.1875 47.347656 82.554688 C 46.234375 81.925781 46.234375 80.902344 47.347656 80.269531 C 48.460938 79.636719 50.265625 79.636719 51.378906 80.269531 C 52.492188 80.902344 52.492188 81.925781 51.378906 82.554688 Z M 51.378906 82.554688 " clip-rule="nonzero"/></clipPath><clipPath id="c9ea8b0171"><path d="M 48.417969 80.320312 L 52.273438 80.320312 L 52.273438 81.742188 L 48.417969 81.742188 Z M 48.417969 80.320312 " clip-rule="nonzero"/></clipPath><clipPath id="702c522a68"><path d="M 51.378906 82.554688 C 50.265625 83.1875 48.460938 83.1875 47.347656 82.554688 C 46.234375 81.925781 46.234375 80.902344 47.347656 80.269531 C 48.460938 79.636719 50.265625 79.636719 51.378906 80.269531 C 52.492188 80.902344 52.492188 81.925781 51.378906 82.554688 Z M 51.378906 82.554688 " clip-rule="nonzero"/></clipPath><clipPath id="c12d504f3f"><path d="M 48.898438 80.796875 L 49.285156 80.796875 L 49.285156 81 L 48.898438 81 Z M 48.898438 80.796875 " clip-rule="nonzero"/></clipPath><clipPath id="fd5ffd18fc"><path d="M 51.378906 82.554688 C 50.265625 83.1875 48.460938 83.1875 47.347656 82.554688 C 46.234375 81.925781 46.234375 80.902344 47.347656 80.269531 C 48.460938 79.636719 50.265625 79.636719 51.378906 80.269531 C 52.492188 80.902344 52.492188 81.925781 51.378906 82.554688 Z M 51.378906 82.554688 " clip-rule="nonzero"/></clipPath><clipPath id="9d1baa3006"><path d="M 48.898438 80.699219 L 51.210938 80.699219 L 51.210938 83.066406 L 48.898438 83.066406 Z M 48.898438 80.699219 " clip-rule="nonzero"/></clipPath><clipPath id="3fc88cbf1c"><path d="M 51.378906 82.554688 C 50.265625 83.1875 48.460938 83.1875 47.347656 82.554688 C 46.234375 81.925781 46.234375 80.902344 47.347656 80.269531 C 48.460938 79.636719 50.265625 79.636719 51.378906 80.269531 C 52.492188 80.902344 52.492188 81.925781 51.378906 82.554688 Z M 51.378906 82.554688 " clip-rule="nonzero"/></clipPath><clipPath id="cb4b165458"><path d="M 49.09375 80.796875 L 52.273438 80.796875 L 52.273438 83.066406 L 49.09375 83.066406 Z M 49.09375 80.796875 " clip-rule="nonzero"/></clipPath><clipPath id="7cac8de710"><path d="M 51.378906 82.554688 C 50.265625 83.1875 48.460938 83.1875 47.347656 82.554688 C 46.234375 81.925781 46.234375 80.902344 47.347656 80.269531 C 48.460938 79.636719 50.265625 79.636719 51.378906 80.269531 C 52.492188 80.902344 52.492188 81.925781 51.378906 82.554688 Z M 51.378906 82.554688 " clip-rule="nonzero"/></clipPath><clipPath id="71102434e8"><path d="M 49.285156 81.269531 L 49.671875 81.269531 L 49.671875 81.550781 L 49.285156 81.550781 Z M 49.285156 81.269531 " clip-rule="nonzero"/></clipPath><clipPath id="5b0393f9af"><path d="M 51.378906 82.554688 C 50.265625 83.1875 48.460938 83.1875 47.347656 82.554688 C 46.234375 81.925781 46.234375 80.902344 47.347656 80.269531 C 48.460938 79.636719 50.265625 79.636719 51.378906 80.269531 C 52.492188 80.902344 52.492188 81.925781 51.378906 82.554688 Z M 51.378906 82.554688 " clip-rule="nonzero"/></clipPath><clipPath id="0d6adb4204"><path d="M 46.492188 81.269531 L 49.09375 81.269531 L 49.09375 82.402344 L 46.492188 82.402344 Z M 46.492188 81.269531 " clip-rule="nonzero"/></clipPath><clipPath id="f1d2f10c05"><path d="M 51.378906 82.554688 C 50.265625 83.1875 48.460938 83.1875 47.347656 82.554688 C 46.234375 81.925781 46.234375 80.902344 47.347656 80.269531 C 48.460938 79.636719 50.265625 79.636719 51.378906 80.269531 C 52.492188 80.902344 52.492188 81.925781 51.378906 82.554688 Z M 51.378906 82.554688 " clip-rule="nonzero"/></clipPath><clipPath id="37cde52053"><path d="M 46.492188 80.511719 L 49.476562 80.511719 L 49.476562 82.121094 L 46.492188 82.121094 Z M 46.492188 80.511719 " clip-rule="nonzero"/></clipPath><clipPath id="ee52d2c860"><path d="M 51.378906 82.554688 C 50.265625 83.1875 48.460938 83.1875 47.347656 82.554688 C 46.234375 81.925781 46.234375 80.902344 47.347656 80.269531 C 48.460938 79.636719 50.265625 79.636719 51.378906 80.269531 C 52.492188 80.902344 52.492188 81.925781 51.378906 82.554688 Z M 51.378906 82.554688 " clip-rule="nonzero"/></clipPath><clipPath id="1b22a350da"><path d="M 46.585938 81.929688 L 50.152344 81.929688 L 50.152344 82.6875 L 46.585938 82.6875 Z M 46.585938 81.929688 " clip-rule="nonzero"/></clipPath><clipPath id="72ea70d843"><path d="M 51.378906 82.554688 C 50.265625 83.1875 48.460938 83.1875 47.347656 82.554688 C 46.234375 81.925781 46.234375 80.902344 47.347656 80.269531 C 48.460938 79.636719 50.265625 79.636719 51.378906 80.269531 C 52.492188 80.902344 52.492188 81.925781 51.378906 82.554688 Z M 51.378906 82.554688 " clip-rule="nonzero"/></clipPath><clipPath id="bc5db763f6"><path d="M 46.78125 81.269531 L 50.828125 81.269531 L 50.828125 82.5 L 46.78125 82.5 Z M 46.78125 81.269531 " clip-rule="nonzero"/></clipPath><clipPath id="774cdb2d7c"><path d="M 51.378906 82.554688 C 50.265625 83.1875 48.460938 83.1875 47.347656 82.554688 C 46.234375 81.925781 46.234375 80.902344 47.347656 80.269531 C 48.460938 79.636719 50.265625 79.636719 51.378906 80.269531 C 52.492188 80.902344 52.492188 81.925781 51.378906 82.554688 Z M 51.378906 82.554688 " clip-rule="nonzero"/></clipPath><clipPath id="3aecd068ec"><path d="M 47.261719 82.027344 L 47.648438 82.027344 L 47.648438 82.308594 L 47.261719 82.308594 Z M 47.261719 82.027344 " clip-rule="nonzero"/></clipPath><clipPath id="2d75f7db14"><path d="M 51.378906 82.554688 C 50.265625 83.1875 48.460938 83.1875 47.347656 82.554688 C 46.234375 81.925781 46.234375 80.902344 47.347656 80.269531 C 48.460938 79.636719 50.265625 79.636719 51.378906 80.269531 C 52.492188 80.902344 52.492188 81.925781 51.378906 82.554688 Z M 51.378906 82.554688 " clip-rule="nonzero"/></clipPath><clipPath id="efdccd0f56"><path d="M 47.359375 82.121094 L 50.730469 82.121094 L 50.730469 83.066406 L 47.359375 83.066406 Z M 47.359375 82.121094 " clip-rule="nonzero"/></clipPath><clipPath id="c08ca3189b"><path d="M 51.378906 82.554688 C 50.265625 83.1875 48.460938 83.1875 47.347656 82.554688 C 46.234375 81.925781 46.234375 80.902344 47.347656 80.269531 C 48.460938 79.636719 50.265625 79.636719 51.378906 80.269531 C 52.492188 80.902344 52.492188 81.925781 51.378906 82.554688 Z M 51.378906 82.554688 " clip-rule="nonzero"/></clipPath><clipPath id="7068a10670"><path d="M 47.648438 81.929688 L 51.695312 81.929688 L 51.695312 83.066406 L 47.648438 83.066406 Z M 47.648438 81.929688 " clip-rule="nonzero"/></clipPath><clipPath id="dbb9f40f37"><path d="M 51.378906 82.554688 C 50.265625 83.1875 48.460938 83.1875 47.347656 82.554688 C 46.234375 81.925781 46.234375 80.902344 47.347656 80.269531 C 48.460938 79.636719 50.265625 79.636719 51.378906 80.269531 C 52.492188 80.902344 52.492188 81.925781 51.378906 82.554688 Z M 51.378906 82.554688 " clip-rule="nonzero"/></clipPath><clipPath id="55072547b3"><path d="M 48.03125 82.308594 L 48.417969 82.308594 L 48.417969 82.59375 L 48.03125 82.59375 Z M 48.03125 82.308594 " clip-rule="nonzero"/></clipPath><clipPath id="648ad3be69"><path d="M 51.378906 82.554688 C 50.265625 83.1875 48.460938 83.1875 47.347656 82.554688 C 46.234375 81.925781 46.234375 80.902344 47.347656 80.269531 C 48.460938 79.636719 50.265625 79.636719 51.378906 80.269531 C 52.492188 80.902344 52.492188 81.925781 51.378906 82.554688 Z M 51.378906 82.554688 " clip-rule="nonzero"/></clipPath><clipPath id="18ca84bb90"><path d="M 48 81.269531 L 50.054688 81.269531 L 50.054688 83.066406 L 48 83.066406 Z M 48 81.269531 " clip-rule="nonzero"/></clipPath><clipPath id="0b5e9f815d"><path d="M 51.378906 82.554688 C 50.265625 83.1875 48.460938 83.1875 47.347656 82.554688 C 46.234375 81.925781 46.234375 80.902344 47.347656 80.269531 C 48.460938 79.636719 50.265625 79.636719 51.378906 80.269531 C 52.492188 80.902344 52.492188 81.925781 51.378906 82.554688 Z M 51.378906 82.554688 " clip-rule="nonzero"/></clipPath><clipPath id="8aabdbfbc3"><path d="M 48.226562 81.363281 L 51.308594 81.363281 L 51.308594 83.066406 L 48.226562 83.066406 Z M 48.226562 81.363281 " clip-rule="nonzero"/></clipPath><clipPath id="e6a78d4db8"><path d="M 51.378906 82.554688 C 50.265625 83.1875 48.460938 83.1875 47.347656 82.554688 C 46.234375 81.925781 46.234375 80.902344 47.347656 80.269531 C 48.460938 79.636719 50.265625 79.636719 51.378906 80.269531 C 52.492188 80.902344 52.492188 81.925781 51.378906 82.554688 Z M 51.378906 82.554688 " clip-rule="nonzero"/></clipPath><clipPath id="a909c2da27"><path d="M 48.320312 81.835938 L 48.707031 81.835938 L 48.707031 82.121094 L 48.320312 82.121094 Z M 48.320312 81.835938 " clip-rule="nonzero"/></clipPath><clipPath id="842a125ef6"><path d="M 51.378906 82.554688 C 50.265625 83.1875 48.460938 83.1875 47.347656 82.554688 C 46.234375 81.925781 46.234375 80.902344 47.347656 80.269531 C 48.460938 79.636719 50.265625 79.636719 51.378906 80.269531 C 52.492188 80.902344 52.492188 81.925781 51.378906 82.554688 Z M 51.378906 82.554688 " clip-rule="nonzero"/></clipPath><clipPath id="3b97154f1e"><path d="M 50 80.890625 L 52.273438 80.890625 L 52.273438 82.972656 L 50 82.972656 Z M 50 80.890625 " clip-rule="nonzero"/></clipPath><clipPath id="8709847ed5"><path d="M 51.378906 82.554688 C 50.265625 83.1875 48.460938 83.1875 47.347656 82.554688 C 46.234375 81.925781 46.234375 80.902344 47.347656 80.269531 C 48.460938 79.636719 50.265625 79.636719 51.378906 80.269531 C 52.492188 80.902344 52.492188 81.925781 51.378906 82.554688 Z M 51.378906 82.554688 " clip-rule="nonzero"/></clipPath><clipPath id="4ae2168211"><path d="M 50.152344 80.890625 L 52.273438 80.890625 L 52.273438 82.78125 L 50.152344 82.78125 Z M 50.152344 80.890625 " clip-rule="nonzero"/></clipPath><clipPath id="3290cde04c"><path d="M 51.378906 82.554688 C 50.265625 83.1875 48.460938 83.1875 47.347656 82.554688 C 46.234375 81.925781 46.234375 80.902344 47.347656 80.269531 C 48.460938 79.636719 50.265625 79.636719 51.378906 80.269531 C 52.492188 80.902344 52.492188 81.925781 51.378906 82.554688 Z M 51.378906 82.554688 " clip-rule="nonzero"/></clipPath><clipPath id="7e887e1d9a"><path d="M 50.539062 81.269531 L 50.921875 81.269531 L 50.921875 81.550781 L 50.539062 81.550781 Z M 50.539062 81.269531 " clip-rule="nonzero"/></clipPath><clipPath id="00c25af365"><path d="M 51.378906 82.554688 C 50.265625 83.1875 48.460938 83.1875 47.347656 82.554688 C 46.234375 81.925781 46.234375 80.902344 47.347656 80.269531 C 48.460938 79.636719 50.265625 79.636719 51.378906 80.269531 C 52.492188 80.902344 52.492188 81.925781 51.378906 82.554688 Z M 51.378906 82.554688 " clip-rule="nonzero"/></clipPath><clipPath id="3fc9cd91d3"><path d="M 50 81.363281 L 52.273438 81.363281 L 52.273438 83.066406 L 50 83.066406 Z M 50 81.363281 " clip-rule="nonzero"/></clipPath><clipPath id="82a917bf2e"><path d="M 51.378906 82.554688 C 50.265625 83.1875 48.460938 83.1875 47.347656 82.554688 C 46.234375 81.925781 46.234375 80.902344 47.347656 80.269531 C 48.460938 79.636719 50.265625 79.636719 51.378906 80.269531 C 52.492188 80.902344 52.492188 81.925781 51.378906 82.554688 Z M 51.378906 82.554688 " clip-rule="nonzero"/></clipPath><clipPath id="b332f5d0c9"><path d="M 50.25 81.363281 L 52.273438 81.363281 L 52.273438 83.066406 L 50.25 83.066406 Z M 50.25 81.363281 " clip-rule="nonzero"/></clipPath><clipPath id="f6a9d80087"><path d="M 51.378906 82.554688 C 50.265625 83.1875 48.460938 83.1875 47.347656 82.554688 C 46.234375 81.925781 46.234375 80.902344 47.347656 80.269531 C 48.460938 79.636719 50.265625 79.636719 51.378906 80.269531 C 52.492188 80.902344 52.492188 81.925781 51.378906 82.554688 Z M 51.378906 82.554688 " clip-rule="nonzero"/></clipPath><clipPath id="af63ec45f8"><path d="M 50.441406 81.835938 L 50.828125 81.835938 L 50.828125 82.027344 L 50.441406 82.027344 Z M 50.441406 81.835938 " clip-rule="nonzero"/></clipPath><clipPath id="7039357944"><path d="M 51.378906 82.554688 C 50.265625 83.1875 48.460938 83.1875 47.347656 82.554688 C 46.234375 81.925781 46.234375 80.902344 47.347656 80.269531 C 48.460938 79.636719 50.265625 79.636719 51.378906 80.269531 C 52.492188 80.902344 52.492188 81.925781 51.378906 82.554688 Z M 51.378906 82.554688 " clip-rule="nonzero"/></clipPath><clipPath id="c7c6b43b81"><path d="M 135.738281 84 L 161.175781 84 L 161.175781 95 L 135.738281 95 Z M 135.738281 84 " clip-rule="nonzero"/></clipPath></defs><g clip-path="url(#62e3a39961)"><path fill="#ffffff" d="M 0 0.183594 L 202 0.183594 L 202 149.816406 L 0 149.816406 Z M 0 0.183594 " fill-opacity="1" fill-rule="nonzero"/><path fill="#38b6ff" d="M 0 0.183594 L 202 0.183594 L 202 149.816406 L 0 149.816406 Z M 0 0.183594 " fill-opacity="1" fill-rule="nonzero"/></g><path fill="#3ae6f2" d="M 157.222656 48.621094 C 156.128906 47.449219 152.074219 46.359375 149.351562 46.5 C 145.648438 46.695312 142.007812 47.554688 138.40625 48.371094 C 134.792969 49.1875 131.179688 50.121094 127.832031 51.726562 C 124.300781 53.417969 121.339844 55.589844 117.378906 56.277344 C 115.4375 56.617188 113.457031 56.796875 111.5625 57.359375 C 110.34375 57.714844 108.585938 58.261719 107.859375 59.398438 C 106.902344 60.894531 107.789062 61.898438 109.058594 62.472656 C 107.160156 63.019531 103.90625 62.867188 103.726562 63.695312 C 103.582031 64.34375 104.789062 64.347656 105.328125 64.414062 C 106.160156 64.515625 106.972656 64.457031 107.773438 64.398438 C 108.667969 64.332031 109.550781 64.265625 110.421875 64.425781 C 108.609375 64.714844 104.75 65.628906 106.21875 67.203125 C 106.597656 67.613281 107.5 67.714844 107.96875 67.847656 C 109.171875 68.183594 110.378906 68.507812 111.613281 68.726562 C 113.710938 69.097656 115.746094 69.023438 117.859375 68.832031 C 120.273438 68.613281 122.625 68.582031 124.941406 69.425781 C 125.949219 69.792969 127.761719 71.277344 128.929688 70.5625 C 129.421875 70.261719 129.582031 69.699219 129.503906 69.167969 C 133.734375 70.546875 139.292969 70.464844 143.054688 68.914062 C 144.242188 68.425781 145.140625 67.242188 144.183594 66.085938 C 143.53125 65.300781 142.367188 64.730469 141.125 64.328125 C 143.074219 64.332031 145.125 63.972656 146.382812 62.859375 C 147.0625 62.261719 147.234375 61.535156 146.898438 60.703125 C 146.488281 59.683594 144.933594 58.597656 147.496094 57.496094 C 148.226562 57.183594 149.285156 57.109375 150.097656 57.113281 C 155.539062 57.125 161.734375 53.457031 157.222656 48.621094 " fill-opacity="1" fill-rule="nonzero"/><path fill="#ffffff" d="M 109.296875 62.832031 C 109.296875 62.832031 108.902344 65.515625 110.574219 66.277344 C 112.242188 67.039062 115.789062 66.65625 119.269531 66.398438 C 122.75 66.136719 130.820312 65.859375 136.300781 62.832031 C 141.78125 59.804688 147.550781 52.753906 147.550781 52.753906 L 109.296875 62.832031 " fill-opacity="1" fill-rule="nonzero"/><path fill="#33212a" d="M 171.675781 24.5 C 171.195312 24.417969 170.695312 24.308594 170.195312 24.15625 C 169.386719 24.667969 168.472656 25.160156 167.441406 25.566406 C 162.949219 27.339844 160.054688 27.105469 158.074219 27.554688 C 156.09375 28.003906 155.183594 34.492188 154.117188 37.757812 C 153.050781 41.027344 146.046875 50.3125 136.851562 55.480469 C 127.65625 60.648438 119.398438 61.011719 114.761719 61.394531 C 112.5625 61.574219 110.96875 60.960938 109.890625 60.269531 C 109.773438 60.707031 109.644531 61.171875 109.503906 61.675781 C 108.050781 66.8125 114.320312 65.359375 117.535156 64.613281 C 122.898438 63.375 129 63.566406 134.09375 61.464844 C 138.179688 59.777344 142.574219 57.542969 146.351562 53.945312 C 150.523438 49.96875 152.152344 46.902344 155.074219 40.191406 C 156.476562 36.972656 156.804688 33.714844 157.777344 31.207031 C 157.871094 30.960938 158.367188 29.96875 158.535156 29.773438 C 159.027344 29.195312 160 28.488281 161.746094 28.59375 C 165.6875 28.828125 169.882812 27.085938 172.164062 26.1875 C 174.449219 25.285156 173.503906 24.8125 171.675781 24.5 " fill-opacity="1" fill-rule="nonzero"/><g clip-path="url(#3741e28353)"><path fill="#33212a" d="M 114.761719 61.394531 C 119.398438 61.011719 127.65625 60.648438 136.851562 55.480469 C 146.046875 50.3125 153.050781 41.027344 154.117188 37.757812 C 155.183594 34.492188 156.09375 28.003906 158.074219 27.554688 C 160.054688 27.105469 162.949219 27.339844 167.441406 25.566406 C 168.472656 25.160156 169.386719 24.667969 170.195312 24.15625 C 168.800781 23.742188 167.375 23.015625 166.144531 21.6875 C 164.46875 19.886719 162.386719 19.925781 162.386719 19.925781 C 162.386719 19.925781 161.980469 18.734375 160.472656 17.011719 C 158.96875 15.285156 155.789062 15.050781 155.773438 14.414062 C 155.753906 13.78125 155.789062 12.1875 155.074219 13.105469 C 154.359375 14.023438 153.507812 18.214844 155.074219 21.980469 C 156.210938 24.707031 155.425781 26.726562 154.902344 27.636719 C 154.171875 28.78125 153.15625 30.054688 151.664062 31.5 C 143.015625 39.882812 127.503906 41.847656 120.148438 46.902344 C 113.761719 51.289062 112.636719 52.957031 111.027344 56.621094 C 110.609375 57.570312 110.308594 58.726562 109.890625 60.269531 C 110.96875 60.960938 112.5625 61.574219 114.761719 61.394531 " fill-opacity="1" fill-rule="nonzero"/><path fill="#3d2934" d="M 113.992188 61.425781 C 112.199219 61.425781 110.855469 60.882812 109.90625 60.277344 C 109.902344 60.277344 109.894531 60.273438 109.890625 60.269531 C 110.308594 58.726562 110.609375 57.570312 111.027344 56.621094 C 112.636719 52.957031 113.761719 51.289062 120.148438 46.902344 C 127.503906 41.847656 143.015625 39.882812 151.664062 31.5 C 153.15625 30.054688 154.171875 28.78125 154.902344 27.636719 C 155.226562 27.070312 155.65625 26.070312 155.65625 24.734375 C 155.65625 23.929688 155.503906 23.003906 155.074219 21.980469 C 154.425781 20.417969 154.191406 18.78125 154.191406 17.335938 C 154.191406 15.300781 154.65625 13.644531 155.074219 13.105469 C 155.230469 12.910156 155.347656 12.828125 155.441406 12.828125 C 155.777344 12.828125 155.757812 13.917969 155.773438 14.414062 C 155.789062 15.050781 158.96875 15.285156 160.472656 17.011719 C 161.980469 18.734375 162.386719 19.925781 162.386719 19.925781 C 162.386719 19.925781 162.390625 19.925781 162.398438 19.925781 C 162.558594 19.925781 164.539062 19.960938 166.144531 21.6875 C 167.375 23.015625 168.800781 23.742188 170.195312 24.15625 C 169.386719 24.667969 168.472656 25.160156 167.441406 25.566406 C 162.949219 27.339844 160.054688 27.105469 158.074219 27.554688 C 156.09375 28.003906 155.183594 34.492188 154.117188 37.757812 C 153.050781 41.027344 146.046875 50.3125 136.851562 55.480469 C 127.65625 60.648438 119.398438 61.011719 114.761719 61.394531 C 114.496094 61.414062 114.242188 61.425781 113.992188 61.425781 " fill-opacity="1" fill-rule="nonzero"/></g><path fill="#33212a" d="M 129.253906 61.460938 C 127.976562 62.664062 129.6875 64.273438 132.105469 65.113281 C 135.195312 66.1875 137.46875 67.582031 142.011719 66.347656 C 146.148438 65.226562 141.703125 64.214844 139.726562 62.429688 C 137.714844 60.613281 135.976562 59.824219 134.246094 59.746094 C 132.777344 59.683594 130.835938 59.972656 129.253906 61.460938 " fill-opacity="1" fill-rule="nonzero"/><path fill="#e0d3da" d="M 129.046875 56.546875 C 127.464844 54.960938 125.664062 56.429688 123.230469 57.644531 C 122.484375 58.015625 120.769531 58.621094 120.609375 59.605469 C 120.195312 62.152344 125.277344 61.339844 126.4375 60.972656 C 128.089844 60.445312 130.953125 58.457031 129.046875 56.546875 " fill-opacity="1" fill-rule="nonzero"/><path fill="#4f3645" d="M 120.632812 48.542969 C 115.523438 51.167969 115.496094 52.203125 113.6875 55.855469 C 111.882812 59.503906 114.679688 59.5625 117.574219 56.820312 C 120.464844 54.082031 121.835938 51.953125 123.664062 50 C 125.492188 48.050781 125.421875 46.078125 120.632812 48.542969 " fill-opacity="1" fill-rule="nonzero"/><path fill="#4f3645" d="M 138.300781 35.070312 C 138.5625 34.542969 138.953125 33.394531 138.558594 33.082031 C 138.429688 32.980469 138.207031 32.96875 137.867188 33.109375 C 136.503906 33.664062 135.441406 34.289062 134.441406 36.671875 C 133.929688 37.890625 131.976562 40.976562 131.222656 43.445312 C 131.152344 43.671875 131.253906 44.058594 131.796875 44.179688 C 132.96875 44.4375 134.96875 43.785156 135.824219 43.597656 C 138.367188 43.03125 138.523438 41.542969 138.523438 41.542969 C 138.523438 41.542969 137.71875 36.25 138.300781 35.070312 " fill-opacity="1" fill-rule="nonzero"/><path fill="#4f3645" d="M 155.484375 15.503906 C 154.808594 15.566406 155.410156 18.214844 155.945312 20.402344 C 156.476562 22.585938 157.085938 24.769531 157.085938 24.769531 C 157.085938 24.769531 158.085938 23.113281 160.585938 21.15625 C 161.601562 20.359375 160.839844 18.480469 159.179688 17.070312 C 157.585938 15.71875 156.488281 15.414062 155.484375 15.503906 " fill-opacity="1" fill-rule="nonzero"/><path fill="#4f3645" d="M 167.667969 24.15625 C 165.765625 23.027344 163.5 20.894531 161.578125 22.101562 C 159.65625 23.304688 158.085938 25.375 158.085938 25.375 C 158.085938 25.375 162.109375 25.976562 164.46875 25.375 C 166.828125 24.769531 167.667969 24.15625 167.667969 24.15625 " fill-opacity="1" fill-rule="nonzero"/><path fill="#4f3645" d="M 147.597656 36.0625 C 145.898438 37.019531 142.460938 38.6875 140.824219 39.582031 C 139.1875 40.476562 140.367188 42.320312 143.699219 40.921875 C 147.035156 39.527344 148.332031 37.847656 149.347656 36.453125 C 150.363281 35.054688 149.515625 34.980469 147.597656 36.0625 " fill-opacity="1" fill-rule="nonzero"/><path fill="#1d0f16" d="M 119.070312 60.417969 C 119.070312 60.816406 118.746094 61.136719 118.34375 61.136719 C 117.945312 61.136719 117.621094 60.816406 117.621094 60.417969 C 117.621094 60.023438 117.945312 59.699219 118.34375 59.699219 C 118.746094 59.699219 119.070312 60.023438 119.070312 60.417969 " fill-opacity="1" fill-rule="nonzero"/><path fill="#1d0f16" d="M 102.609375 23.851562 C 102.609375 23.851562 101.203125 24.203125 101.277344 25.289062 C 101.351562 26.375 102.78125 27 103.324219 26.320312 C 103.863281 25.644531 102.609375 23.851562 102.609375 23.851562 " fill-opacity="1" fill-rule="nonzero"/><path fill="#1d0f16" d="M 108.503906 45.074219 C 108.386719 44.738281 108.308594 43.277344 108.546875 42.003906 C 108.867188 40.289062 108.515625 37.613281 107.832031 36.367188 C 107.613281 35.972656 107.109375 35.246094 106.710938 34.953125 C 105.605469 35.847656 101.796875 35.695312 101.769531 35.726562 C 101.03125 36.566406 100.886719 37.003906 100.660156 37.535156 C 99.832031 39.476562 100.195312 41.390625 100.613281 42.585938 C 100.890625 43.378906 101.625 44.820312 101.441406 45.84375 C 101.277344 46.769531 100.863281 47.96875 100.699219 48.90625 C 100.398438 50.636719 100.960938 52.378906 100.9375 54.222656 C 101.414062 54.640625 101.625 54.972656 102.011719 54.667969 C 102.011719 54.667969 103.523438 50.835938 103.613281 49.234375 C 103.65625 48.503906 103.230469 46.414062 103.304688 45.96875 C 103.507812 44.75 103.78125 44.476562 104.148438 43.042969 C 104.542969 41.492188 104.753906 40.28125 104.753906 40.265625 C 105.125 42.585938 106 43.511719 106.019531 44.667969 C 106.027344 45.097656 105.734375 46.375 106.101562 47.472656 C 106.550781 48.804688 106.550781 49.914062 106.960938 51.148438 C 107.328125 51.5625 108.175781 51.40625 108.230469 51.015625 C 108.230469 49.664062 109.121094 46.820312 108.503906 45.074219 " fill-opacity="1" fill-rule="nonzero"/><path fill="#ffb9a4" d="M 102.367188 28.234375 C 102.648438 28.496094 102.90625 28.675781 103.289062 28.777344 C 103.703125 28.886719 104.589844 30.238281 104.871094 29.84375 C 104.988281 29.671875 105.078125 28.675781 105.125 28.476562 C 105.003906 28.421875 104.730469 27.738281 104.714844 27.636719 C 104.679688 27.457031 104.496094 27.292969 104.527344 27.113281 C 104.570312 26.863281 104.625 26.609375 104.652344 26.351562 C 104.285156 26.152344 103.953125 25.882812 103.527344 25.78125 C 103.296875 25.730469 102.972656 25.082031 102.753906 24.964844 C 102.902344 25.515625 102.71875 26.308594 102.652344 26.628906 C 102.578125 27 102.519531 27.160156 102.253906 27.535156 C 102.347656 27.5625 102.265625 28.140625 102.367188 28.234375 " fill-opacity="1" fill-rule="nonzero"/><path fill="#1d0f16" d="M 104.652344 26.351562 C 104.652344 26.351562 106.085938 26.125 106.648438 26.914062 C 107.210938 27.699219 107.816406 29.230469 108.027344 29.640625 C 108.582031 29.421875 109.15625 29.464844 109.890625 29.320312 C 110.777344 29.148438 111.417969 28.84375 111.925781 28.839844 C 111.820312 29.207031 112.195312 30.238281 112.195312 30.238281 C 112.195312 30.238281 110.324219 31.324219 109.089844 31.722656 C 108.730469 31.839844 108.285156 31.886719 108 31.914062 C 107.628906 31.953125 107.316406 31.992188 107.0625 31.648438 C 106.445312 30.8125 105.453125 29.824219 105.453125 29.824219 L 104.652344 26.351562 " fill-opacity="1" fill-rule="nonzero"/><path fill="#10b6dd" d="M 105.125 26.320312 C 105.125 26.320312 106.023438 26.191406 106.558594 26.667969 C 107.097656 27.140625 107.886719 29.347656 107.886719 29.347656 C 107.886719 29.347656 107.582031 29.90625 107.347656 30.402344 C 107.027344 31.089844 107.0625 31.648438 107.0625 31.648438 L 105.125 29.71875 L 105.125 26.320312 " fill-opacity="1" fill-rule="nonzero"/><path fill="#33212a" d="M 106.433594 28.476562 C 106.128906 27.910156 105.667969 27.324219 105.246094 26.847656 C 105.21875 26.8125 104.429688 27.121094 104.261719 26.910156 C 104.261719 27.140625 105.125 28.09375 104.15625 28.582031 C 103.515625 28.902344 102.46875 27.683594 102.253906 27.535156 C 101.949219 27.824219 101.269531 28.140625 100.898438 28.359375 C 100.738281 28.453125 100.625 28.773438 100.632812 28.863281 C 100.65625 29.183594 100.765625 30.882812 101.136719 31.480469 C 101.445312 31.859375 102.078125 32.425781 102.253906 33.136719 C 102.488281 34.0625 101.105469 36.199219 100.660156 37.535156 C 101.285156 38.027344 102.675781 38.5625 103.960938 38.316406 C 106.277344 37.867188 107.789062 36.828125 107.96875 36.648438 C 107.53125 35.828125 107.023438 34.566406 106.648438 33.117188 C 106.390625 32.117188 107.011719 30.648438 107.0625 30.277344 C 107.167969 29.511719 106.652344 28.882812 106.433594 28.476562 " fill-opacity="1" fill-rule="nonzero"/><path fill="#10b6dd" d="M 100.796875 37.183594 L 100.484375 37.980469 C 100.484375 37.980469 101.496094 38.699219 103.691406 38.820312 C 105.882812 38.941406 108.171875 37.183594 108.171875 37.183594 L 107.832031 36.367188 C 107.832031 36.367188 107.003906 37.351562 105.183594 37.695312 C 102.109375 38.269531 100.796875 37.183594 100.796875 37.183594 " fill-opacity="1" fill-rule="nonzero"/><path fill="#10b6dd" d="M 102.367188 27.367188 L 102.011719 27.726562 C 102.011719 27.726562 102.832031 28.699219 103.550781 28.894531 C 104.269531 29.089844 104.878906 28.707031 104.90625 28.132812 C 104.9375 27.554688 104.441406 26.84375 104.441406 26.84375 C 104.441406 26.84375 103.726562 26.898438 103.449219 26.824219 C 103.167969 26.75 102.703125 26.496094 102.703125 26.496094 C 102.703125 26.496094 102.53125 27.058594 102.367188 27.367188 " fill-opacity="1" fill-rule="nonzero"/><path fill="#ffc9b6" d="M 106.277344 24.167969 C 106.25 23.578125 106.121094 22.835938 105.664062 22.417969 C 105.210938 22 104.433594 21.960938 103.847656 22 C 102.9375 22.0625 102.296875 23.0625 102.457031 24.214844 C 102.605469 25.277344 103.324219 26.917969 104.523438 27.140625 C 105.859375 27.386719 106.316406 25.0625 106.277344 24.167969 " fill-opacity="1" fill-rule="nonzero"/><path fill="#ffc9b6" d="M 103.5625 24.574219 C 103.5625 24.574219 103.175781 23.957031 102.894531 24.339844 C 102.613281 24.722656 102.878906 25.503906 103.230469 25.484375 C 103.582031 25.46875 103.5625 24.574219 103.5625 24.574219 " fill-opacity="1" fill-rule="nonzero"/><g clip-path="url(#6daa941d28)"><path fill="#1d0f16" d="M 101.382812 28.09375 C 101.382812 28.09375 100.40625 28.324219 100.035156 28.78125 C 99.695312 29.203125 99.539062 30.332031 99.152344 31.023438 C 98.765625 31.710938 98.347656 32.582031 97.871094 33.054688 C 97.394531 33.527344 97.679688 33.804688 97.796875 34.308594 C 97.855469 34.558594 98.394531 35.429688 99.03125 36 C 99.671875 36.570312 100.40625 36.839844 100.40625 36.839844 C 100.40625 36.839844 100.496094 36.285156 101.105469 36.199219 C 101.109375 35.984375 100.683594 35.316406 100.40625 34.871094 C 100.128906 34.425781 99.570312 33.601562 99.570312 33.601562 C 99.570312 33.601562 100.089844 33.285156 100.699219 32.703125 C 101.28125 32.148438 101.707031 31.554688 101.886719 31.085938 C 102.257812 30.125 102.398438 29.027344 101.382812 28.09375 " fill-opacity="1" fill-rule="nonzero"/></g><path fill="#1d0f16" d="M 105.96875 22.207031 C 105.453125 21.644531 104.914062 21.566406 104.355469 21.988281 C 103.6875 21.296875 102.449219 21.972656 102.164062 23.011719 C 102.015625 23.554688 101.644531 24.574219 102.777344 25.488281 C 103.691406 25.289062 103.945312 24.214844 104.652344 23.558594 C 104.921875 23.851562 105.933594 24.214844 106.382812 24.128906 C 106.722656 23.347656 106.5625 22.847656 105.96875 22.207031 " fill-opacity="1" fill-rule="nonzero"/><path fill="#ffc9b6" d="M 111.488281 28.898438 C 111.824219 28.742188 112.449219 28.578125 112.820312 28.460938 C 113.140625 28.304688 113.730469 27.957031 114.039062 27.949219 C 114.371094 27.945312 114.4375 27.839844 114.257812 28.109375 C 114.226562 28.152344 114.128906 28.265625 114.015625 28.382812 C 114.742188 28.527344 115.078125 28.679688 115.882812 28.613281 C 116.71875 28.542969 116.179688 29.445312 115.511719 29.828125 C 114.933594 30.15625 113.683594 29.394531 113.265625 29.589844 C 112.757812 29.828125 111.90625 30.402344 111.90625 30.402344 C 111.90625 30.402344 111.234375 29.875 111.488281 28.898438 " fill-opacity="1" fill-rule="nonzero"/><path fill="#ffc9b6" d="M 103.945312 25.140625 C 103.945312 25.140625 103.273438 24.363281 103.167969 25.140625 C 103.085938 25.757812 103.527344 25.78125 103.527344 25.78125 L 103.945312 25.140625 " fill-opacity="1" fill-rule="nonzero"/><path fill="#10b6dd" d="M 98.234375 32.609375 C 98.234375 32.609375 98.761719 32.425781 99.609375 32.515625 C 100.453125 32.605469 100.664062 32.738281 100.664062 32.738281 C 100.664062 32.738281 101.75 31.984375 102.085938 30.4375 C 102.277344 29.566406 102.230469 28.851562 101.433594 28.066406 C 100.363281 28.347656 99.933594 28.457031 99.597656 29.480469 C 99.265625 30.503906 98.597656 32.167969 98.234375 32.609375 " fill-opacity="1" fill-rule="nonzero"/><path fill="#10b6dd" d="M 105.925781 29.515625 C 106.109375 29.9375 105.796875 30.480469 105.226562 30.726562 C 104.65625 30.972656 104.039062 30.832031 103.855469 30.410156 C 103.667969 29.988281 103.980469 29.449219 104.554688 29.199219 C 105.125 28.953125 105.738281 29.09375 105.925781 29.515625 " fill-opacity="1" fill-rule="nonzero"/><path fill="#10b6dd" d="M 100.160156 40.226562 C 100.160156 40.226562 103.410156 41.765625 104.148438 43.042969 C 103.929688 43.855469 103.605469 44.855469 103.441406 45.675781 C 103.238281 46.671875 103.433594 47.398438 103.433594 47.398438 C 103.433594 47.398438 102.816406 46.546875 102.570312 46.296875 C 102.324219 46.042969 101.46875 45.40625 101.46875 45.40625 C 101.46875 45.40625 101.425781 44.644531 100.761719 43.207031 C 100.246094 42.089844 100.160156 40.8125 100.160156 40.226562 " fill-opacity="1" fill-rule="nonzero"/><path fill="#10b6dd" d="M 108.519531 38.675781 C 108.519531 38.675781 108.308594 39.863281 107.519531 40.984375 C 106.613281 42.273438 105.488281 42.832031 105.488281 42.832031 C 105.488281 42.832031 105.769531 43.460938 105.863281 43.8125 C 105.992188 44.289062 105.976562 45.265625 105.894531 45.703125 C 105.8125 46.140625 105.945312 46.714844 105.945312 46.714844 C 105.945312 46.714844 106.980469 46.019531 107.398438 45.589844 C 107.96875 45 108.414062 44.429688 108.414062 44.429688 C 108.414062 44.429688 108.378906 43.257812 108.519531 42.367188 C 108.644531 41.5625 108.734375 40.878906 108.722656 40.226562 C 108.710938 39.605469 108.519531 38.675781 108.519531 38.675781 " fill-opacity="1" fill-rule="nonzero"/><path fill="#1d0f16" d="M 101.140625 53.328125 C 101.140625 53.328125 101.035156 53.6875 100.746094 54.699219 C 100.460938 55.71875 100.621094 56.203125 100.441406 57.179688 C 100.265625 58.15625 100.628906 58.273438 101.347656 58.300781 C 102.433594 58.34375 102.496094 57.976562 102.433594 57.535156 C 102.371094 57.097656 102.277344 56.398438 102.257812 55.621094 C 102.234375 54.839844 102.066406 53.804688 102.066406 53.804688 L 101.140625 53.328125 " fill-opacity="1" fill-rule="nonzero"/><path fill="#1d0f16" d="M 106.847656 50.773438 C 106.90625 51.683594 106.296875 51.828125 106.847656 52.363281 C 107.398438 52.902344 108.433594 53.4375 108.925781 54.21875 C 109.417969 54.996094 110.699219 54.605469 110.992188 54.21875 C 111.289062 53.828125 110.648438 53.386719 110.402344 53.09375 C 110.15625 52.804688 108.625 51.660156 108.230469 51.015625 C 107.839844 50.367188 106.847656 50.773438 106.847656 50.773438 " fill-opacity="1" fill-rule="nonzero"/><path fill="#d3c1cc" d="M 105.320312 40.808594 L 105.015625 46.023438 C 105.015625 46.835938 103.699219 47.496094 102.074219 47.496094 C 100.453125 47.496094 99.136719 46.835938 99.136719 46.023438 L 98.832031 40.808594 L 105.320312 40.808594 " fill-opacity="1" fill-rule="nonzero"/><path fill="#c4aebb" d="M 98.679688 41.21875 L 98.800781 41.082031 C 98.800781 41.082031 100.515625 39.921875 102.078125 39.921875 C 103.636719 39.921875 105.351562 41.082031 105.351562 41.082031 L 105.480469 41.21875 L 105.480469 41.660156 C 105.441406 42.582031 103.933594 43.328125 102.078125 43.328125 C 100.230469 43.328125 98.71875 42.578125 98.671875 41.660156 L 98.679688 41.21875 " fill-opacity="1" fill-rule="nonzero"/><path fill="#e0d3da" d="M 102.078125 39.515625 C 103.957031 39.515625 105.480469 40.277344 105.480469 41.21875 C 105.480469 42.160156 103.957031 42.921875 102.078125 42.921875 C 100.199219 42.921875 98.679688 42.160156 98.679688 41.21875 C 98.679688 40.277344 100.199219 39.515625 102.078125 39.515625 " fill-opacity="1" fill-rule="nonzero"/><path fill="#c4aebb" d="M 105.320312 40.808594 C 105.320312 40.898438 105.300781 41.128906 105.296875 41.152344 C 105.226562 42.015625 103.808594 42.703125 102.066406 42.703125 C 100.417969 42.703125 99.058594 42.085938 98.859375 41.285156 L 98.832031 40.808594 C 98.839844 40.75 105.320312 40.808594 105.320312 40.808594 " fill-opacity="1" fill-rule="nonzero"/><path fill="#e0d3da" d="M 102.074219 39.183594 C 103.867188 39.183594 105.320312 39.910156 105.320312 40.808594 C 105.320312 41.707031 103.867188 42.433594 102.074219 42.433594 C 100.285156 42.433594 98.832031 41.707031 98.832031 40.808594 C 98.832031 39.910156 100.285156 39.183594 102.074219 39.183594 " fill-opacity="1" fill-rule="nonzero"/><path fill="#c4aebb" d="M 102.074219 40.523438 C 103.308594 40.523438 104.367188 40.878906 104.835938 41.386719 C 104.929688 41.285156 105.003906 41.171875 105.046875 41.054688 C 105.074219 40.976562 105.09375 40.894531 105.09375 40.808594 C 105.09375 40.007812 103.742188 39.359375 102.074219 39.359375 C 100.410156 39.359375 99.058594 40.007812 99.058594 40.808594 C 99.058594 40.894531 99.078125 40.976562 99.105469 41.054688 C 99.148438 41.171875 99.222656 41.285156 99.316406 41.386719 C 99.785156 40.878906 100.84375 40.523438 102.074219 40.523438 " fill-opacity="1" fill-rule="nonzero"/><path fill="#10b6dd" d="M 102.074219 42.253906 C 103.3125 42.253906 104.371094 41.898438 104.835938 41.386719 C 104.367188 40.878906 103.308594 40.523438 102.074219 40.523438 C 100.84375 40.523438 99.785156 40.878906 99.316406 41.386719 C 99.78125 41.898438 100.839844 42.253906 102.074219 42.253906 " fill-opacity="1" fill-rule="nonzero"/><path fill="#5179a8" d="M 100.277344 40.398438 C 100.609375 40.910156 101.226562 40.960938 101.472656 40.605469 C 101.253906 40.273438 100.859375 39.796875 100.28125 39.652344 C 99.898438 39.550781 99.734375 39.636719 99.683594 39.808594 C 99.855469 39.921875 100.089844 40.109375 100.277344 40.398438 " fill-opacity="1" fill-rule="nonzero"/><path fill="#3d6b99" d="M 99.851562 40.738281 C 100.007812 41.265625 100.21875 41.605469 100.21875 41.605469 C 100.21875 41.605469 100.453125 41.695312 101.03125 41.507812 C 101.339844 41.40625 101.636719 41.253906 101.660156 40.945312 C 101.660156 40.945312 101.597656 40.800781 101.472656 40.605469 C 101.226562 40.960938 100.609375 40.910156 100.277344 40.398438 C 100.089844 40.109375 99.855469 39.921875 99.683594 39.808594 C 99.613281 40.042969 99.761719 40.4375 99.851562 40.738281 " fill-opacity="1" fill-rule="nonzero"/><path fill="#33212a" d="M 100.621094 39.914062 C 100.398438 39.914062 100.398438 40.261719 100.621094 40.261719 C 100.847656 40.261719 100.847656 39.914062 100.621094 39.914062 " fill-opacity="1" fill-rule="nonzero"/><path fill="#5179a8" d="M 104.1875 40.199219 C 103.855469 40.710938 103.238281 40.761719 102.992188 40.40625 C 103.210938 40.074219 103.605469 39.597656 104.183594 39.449219 C 104.566406 39.351562 104.730469 39.4375 104.78125 39.605469 C 104.609375 39.71875 104.375 39.910156 104.1875 40.199219 " fill-opacity="1" fill-rule="nonzero"/><path fill="#3d6b99" d="M 104.613281 40.539062 C 104.453125 41.0625 104.242188 41.402344 104.242188 41.402344 C 104.242188 41.402344 104.011719 41.496094 103.433594 41.304688 C 103.121094 41.207031 102.828125 41.054688 102.804688 40.746094 C 102.804688 40.746094 102.867188 40.601562 102.992188 40.40625 C 103.238281 40.761719 103.855469 40.710938 104.1875 40.199219 C 104.375 39.910156 104.609375 39.71875 104.78125 39.605469 C 104.851562 39.839844 104.703125 40.234375 104.613281 40.539062 " fill-opacity="1" fill-rule="nonzero"/><path fill="#33212a" d="M 103.84375 39.714844 C 104.066406 39.714844 104.066406 40.0625 103.84375 40.0625 C 103.617188 40.0625 103.617188 39.714844 103.84375 39.714844 " fill-opacity="1" fill-rule="nonzero"/><path fill="#f54e6a" d="M 102.132812 37.054688 C 102.441406 36.878906 102.746094 36.789062 103.03125 36.789062 C 103.261719 36.789062 103.480469 36.847656 103.683594 36.964844 C 104.425781 37.390625 104.882812 38.527344 104.925781 40.03125 C 104.96875 40.089844 105.09375 40.210938 105.121094 40.246094 C 105.121094 38.566406 104.621094 37.277344 103.78125 36.800781 C 103.261719 36.503906 102.660156 36.535156 102.035156 36.890625 C 100.648438 37.683594 99.484375 39.945312 99.148438 42.292969 C 99.148438 42.292969 99.148438 42.433594 99.261719 42.433594 C 99.351562 42.433594 99.34375 42.292969 99.34375 42.292969 C 99.671875 40.011719 100.796875 37.820312 102.132812 37.054688 " fill-opacity="1" fill-rule="nonzero"/><path fill="#ffc9b6" d="M 101.027344 35.828125 C 101.027344 35.828125 102.457031 36.183594 102.4375 36.878906 C 102.433594 37.046875 102.433594 37.214844 102.28125 37.457031 C 101.90625 38.054688 101.230469 37.90625 100.925781 37.609375 C 100.621094 37.3125 100.222656 36.746094 100.222656 36.746094 C 100.222656 36.746094 100.363281 35.984375 101.027344 35.828125 " fill-opacity="1" fill-rule="nonzero"/><path fill="#2d5e87" d="M 103.886719 40.925781 C 103.886719 40.925781 103.816406 40.886719 103.699219 40.890625 C 103.59375 41.046875 103.410156 41.308594 103.265625 41.5 C 103.054688 41.777344 102.90625 41.941406 102.917969 42.21875 C 102.925781 42.492188 103.035156 42.691406 102.832031 42.730469 C 102.671875 42.757812 102.386719 42.695312 102.199219 42.546875 C 102.128906 42.683594 102.074219 42.78125 102.074219 42.78125 C 102.074219 42.78125 102.160156 42.945312 102.5 43.03125 C 102.863281 43.125 103.292969 43.03125 103.292969 43.03125 C 103.292969 43.03125 103.203125 42.574219 103.148438 42.292969 C 103.074219 41.914062 103.109375 41.886719 103.351562 41.621094 C 103.589844 41.355469 103.886719 40.925781 103.886719 40.925781 " fill-opacity="1" fill-rule="nonzero"/><path fill="#3d6b99" d="M 102.832031 42.730469 C 103.035156 42.691406 102.925781 42.492188 102.917969 42.21875 C 102.90625 41.941406 103.054688 41.777344 103.265625 41.5 C 103.410156 41.308594 103.59375 41.046875 103.699219 40.890625 C 103.625 40.894531 103.535156 40.914062 103.429688 40.964844 C 103.21875 41.074219 103.054688 41.277344 103.054688 41.277344 C 103.054688 41.277344 103.015625 40.992188 102.804688 40.835938 C 102.621094 40.695312 102.4375 40.617188 102.4375 40.617188 C 102.4375 40.617188 102.582031 40.992188 102.582031 41.5 C 102.582031 41.761719 102.351562 42.257812 102.199219 42.546875 C 102.386719 42.695312 102.671875 42.757812 102.832031 42.730469 " fill-opacity="1" fill-rule="nonzero"/><path fill="#2d5e87" d="M 101.597656 43.445312 C 101.574219 43.570312 101.519531 43.730469 101.492188 43.867188 C 101.761719 43.90625 101.921875 43.929688 102.199219 43.9375 C 102.308594 43.9375 102.667969 43.933594 102.667969 43.933594 C 102.667969 43.933594 102.613281 43.839844 102.546875 43.703125 C 102.355469 43.851562 102.074219 43.914062 101.910156 43.882812 C 101.707031 43.847656 101.820312 43.644531 101.828125 43.371094 C 101.839844 43.097656 101.691406 42.933594 101.476562 42.652344 C 101.335938 42.464844 101.152344 42.199219 101.046875 42.046875 C 100.929688 42.042969 100.855469 42.078125 100.855469 42.078125 C 100.855469 42.078125 101.15625 42.511719 101.394531 42.773438 C 101.632812 43.039062 101.671875 43.070312 101.597656 43.445312 " fill-opacity="1" fill-rule="nonzero"/><path fill="#3d6b99" d="M 101.910156 43.882812 C 101.707031 43.847656 101.820312 43.644531 101.828125 43.371094 C 101.839844 43.097656 101.691406 42.933594 101.476562 42.652344 C 101.335938 42.464844 101.152344 42.199219 101.046875 42.046875 C 101.117188 42.050781 101.210938 42.066406 101.3125 42.121094 C 101.527344 42.230469 101.691406 42.433594 101.691406 42.433594 C 101.691406 42.433594 101.726562 42.148438 101.9375 41.988281 C 102.125 41.851562 102.308594 41.773438 102.308594 41.773438 C 102.308594 41.773438 102.160156 42.148438 102.160156 42.65625 C 102.160156 42.914062 102.394531 43.410156 102.546875 43.703125 C 102.355469 43.851562 102.074219 43.914062 101.910156 43.882812 " fill-opacity="1" fill-rule="nonzero"/><path fill="#5179a8" d="M 114.230469 29.464844 C 114.230469 28.949219 113.945312 28.777344 113.707031 28.726562 C 113.4375 29.164062 113.175781 29.6875 112.886719 30.503906 C 112.257812 32.265625 112.625 33.246094 113.03125 33.882812 C 113.109375 34 113.183594 34.082031 113.261719 34.144531 C 113.433594 33.890625 113.628906 33.597656 113.816406 33.289062 C 114.355469 32.414062 114.238281 30.339844 114.230469 29.464844 " fill-opacity="1" fill-rule="nonzero"/><path fill="#3d6b99" d="M 114.230469 33.484375 C 114.660156 32.46875 114.484375 31.839844 114.484375 31.070312 C 114.484375 29.753906 114.605469 29.011719 114.605469 29.011719 C 114.605469 29.011719 115.273438 29.1875 115.738281 29.078125 C 116.203125 28.964844 116.773438 28.574219 116.773438 28.574219 C 116.773438 28.574219 116.136719 28.425781 115.65625 28.351562 C 115.175781 28.28125 114.878906 28.351562 114.878906 28.351562 C 114.878906 28.351562 115.359375 27.515625 114.769531 27.21875 C 114.355469 27.824219 114.023438 28.21875 113.707031 28.726562 C 113.945312 28.777344 114.230469 28.949219 114.230469 29.464844 C 114.238281 30.339844 114.355469 32.414062 113.816406 33.289062 C 113.628906 33.597656 113.433594 33.890625 113.261719 34.144531 C 113.597656 34.417969 113.941406 34.171875 114.230469 33.484375 " fill-opacity="1" fill-rule="nonzero"/><path fill="#ffc9b6" d="M 113.652344 28.261719 C 113.652344 28.261719 113.839844 28.296875 113.976562 28.320312 C 114.113281 28.34375 114.140625 28.410156 114.425781 28.527344 C 114.714844 28.644531 114.960938 28.519531 114.703125 28.261719 C 114.445312 28.007812 114.390625 27.957031 114.257812 27.933594 C 114.121094 27.90625 113.761719 27.941406 113.652344 28.261719 " fill-opacity="1" fill-rule="nonzero"/><path fill="#33212a" d="M 113.261719 32.5625 C 113.035156 32.5625 113.035156 32.910156 113.261719 32.910156 C 113.488281 32.910156 113.488281 32.5625 113.261719 32.5625 " fill-opacity="1" fill-rule="nonzero"/><path fill="#3d6b99" d="M 113.089844 31.152344 C 113.019531 30.898438 112.589844 29.964844 112.589844 29.964844 C 112.589844 29.964844 112.351562 30.839844 112.4375 31.433594 C 112.527344 32.027344 113.089844 32.023438 113.089844 32.023438 C 113.089844 32.023438 113.148438 31.363281 113.089844 31.152344 " fill-opacity="1" fill-rule="nonzero"/><path fill="#3d6b99" d="M 114.8125 30.402344 L 114.246094 30.753906 L 114.359375 32.171875 C 114.359375 32.171875 114.683594 32.257812 114.8125 31.648438 C 114.945312 31.042969 114.8125 30.402344 114.8125 30.402344 " fill-opacity="1" fill-rule="nonzero"/><path fill="#314049" d="M 37.960938 94.289062 C 38.113281 94.742188 37.964844 96.765625 38.402344 97.289062 C 38.839844 97.808594 40.160156 97.449219 40.414062 96.796875 C 40.671875 96.140625 42.339844 95.859375 42.550781 95.144531 C 42.761719 94.433594 41.640625 94.449219 40.960938 94.375 C 40.28125 94.300781 40.246094 93.980469 40.246094 93.980469 L 37.960938 94.289062 " fill-opacity="1" fill-rule="nonzero"/><g clip-path="url(#0b9660c537)"><path fill="#526979" d="M 42.277344 95.960938 C 42.550781 96.636719 42.386719 98.175781 42.804688 98.960938 C 43.171875 99.652344 44.53125 99.785156 44.890625 98.960938 C 45.253906 98.132812 47.148438 98.335938 47.566406 97.203125 C 47.988281 96.066406 45.558594 97.082031 44.820312 96.203125 L 42.277344 95.960938 " fill-opacity="1" fill-rule="nonzero"/></g><path fill="#314049" d="M 38.253906 64.304688 C 38.253906 64.304688 36.847656 69.285156 37.054688 70.855469 C 37.265625 72.425781 38.003906 74.53125 38.003906 74.53125 L 40.382812 70.433594 L 38.253906 64.304688 " fill-opacity="1" fill-rule="nonzero"/><g clip-path="url(#7e8d3eb8fa)"><path fill="#314049" d="M 37.054688 74.796875 C 37.054688 74.796875 36.460938 81.457031 37.332031 83.910156 C 37.40625 84.113281 37.40625 84.328125 37.351562 84.539062 C 37.050781 85.675781 36.285156 89.582031 38.113281 94.742188 C 38.113281 94.742188 39.222656 96.042969 39.996094 94.742188 C 40.769531 93.4375 40.605469 86.007812 40.875 84.339844 C 41.140625 82.667969 41.914062 76.121094 41.914062 76.121094 L 37.054688 74.796875 " fill-opacity="1" fill-rule="nonzero"/></g><path fill="#526979" d="M 45.78125 84.871094 C 45.78125 85.421875 45.773438 85.871094 45.765625 86.152344 C 45.6875 87.824219 45.105469 96.035156 44.675781 96.632812 C 44.246094 97.234375 43.292969 97.535156 42.554688 96.632812 C 41.878906 95.816406 41.203125 88.542969 41.902344 86.03125 C 42.023438 85.597656 41.996094 85.144531 41.796875 84.742188 C 41.121094 83.410156 39.75 80.390625 39.832031 78.058594 C 39.851562 77.480469 39.964844 76.941406 40.195312 76.476562 C 40.828125 75.242188 41.914062 75.058594 42.953125 75.257812 C 44.285156 75.511719 45.535156 76.394531 45.644531 76.476562 C 45.648438 76.5 45.65625 76.523438 45.648438 76.546875 C 45.648438 76.605469 45.644531 76.683594 45.648438 76.78125 C 45.65625 78.046875 45.773438 82.449219 45.78125 84.871094 " fill-opacity="1" fill-rule="nonzero"/><path fill="#e99784" d="M 44.960938 58.816406 C 45.367188 60.539062 44.964844 62.5 44.246094 63.339844 C 43.527344 64.179688 40.339844 63.171875 39.832031 61.265625 C 39.324219 59.359375 40.039062 57.796875 41.609375 57.28125 C 43.179688 56.761719 44.699219 57.707031 44.960938 58.816406 " fill-opacity="1" fill-rule="nonzero"/><path fill="#526979" d="M 45.644531 76.476562 C 45.648438 76.5 45.65625 76.523438 45.648438 76.546875 C 45.65625 76.628906 45.65625 76.707031 45.648438 76.78125 C 45.648438 76.898438 45.636719 77.015625 45.621094 77.128906 C 45.472656 77.960938 44.671875 78.441406 43.609375 78.59375 C 42.480469 78.761719 41.0625 78.570312 39.832031 78.058594 C 38.292969 77.433594 37.058594 76.3125 37.058594 74.796875 C 37.058594 73.476562 37.695312 71.917969 38.058594 70.703125 C 38.183594 70.28125 38.28125 69.902344 38.304688 69.585938 C 38.40625 68.355469 38.019531 65.460938 38.257812 64.304688 C 38.554688 62.84375 39.765625 62.339844 41.40625 62.726562 C 41.492188 62.746094 41.574219 62.769531 41.664062 62.796875 C 43.273438 63.277344 45.320312 64.789062 45.703125 66.472656 C 46.089844 68.207031 44.558594 70.339844 44.523438 71.945312 L 44.523438 72.050781 C 44.550781 73.449219 45.554688 75.058594 45.644531 76.476562 " fill-opacity="1" fill-rule="nonzero"/><path fill="#d0cfec" d="M 40.378906 67.078125 C 41.089844 69.167969 39.863281 71.0625 38.058594 70.703125 C 38.183594 70.28125 38.28125 69.902344 38.304688 69.585938 C 38.40625 68.355469 38.019531 65.460938 38.257812 64.304688 C 38.554688 62.84375 39.765625 62.339844 41.40625 62.726562 C 41.492188 62.746094 41.574219 62.769531 41.664062 62.796875 C 42.085938 63.980469 39.730469 65.136719 40.378906 67.078125 " fill-opacity="1" fill-rule="nonzero"/><path fill="#d0cfec" d="M 45.78125 84.871094 C 44.164062 84.5 45.296875 81.007812 44.140625 80.386719 C 43.554688 80.074219 43.539062 79.378906 43.609375 78.59375 C 43.710938 77.507812 43.992188 76.242188 43.210938 75.550781 C 43.109375 75.464844 43.023438 75.363281 42.953125 75.257812 C 42.199219 74.140625 43.167969 72.332031 44.523438 71.945312 L 44.523438 72.050781 C 44.550781 73.449219 45.554688 75.058594 45.644531 76.476562 C 45.648438 76.5 45.65625 76.523438 45.648438 76.546875 C 45.65625 76.628906 45.65625 76.707031 45.648438 76.78125 C 45.65625 78.046875 45.773438 82.449219 45.78125 84.871094 " fill-opacity="1" fill-rule="nonzero"/><path fill="#f0ce2f" d="M 44.804688 57.738281 C 45.417969 58.128906 45.476562 58.371094 45.421875 59.296875 C 45.367188 60.222656 43.539062 60.007812 43.726562 61.304688 C 43.914062 62.597656 43.863281 64.820312 42.757812 64.871094 C 41.65625 64.925781 41.46875 65.890625 40.578125 65.445312 C 39.691406 65.003906 39.421875 65.402344 39.152344 64.160156 C 38.882812 62.917969 39.164062 60.601562 39.503906 59.425781 C 39.839844 58.25 41.519531 55.648438 44.804688 57.738281 " fill-opacity="1" fill-rule="nonzero"/><g clip-path="url(#f7122d06aa)"><path fill="#a4a2d9" d="M 52.695312 81.542969 L 52.210938 86.484375 C 52.210938 86.898438 51.933594 87.3125 51.378906 87.628906 C 50.261719 88.257812 48.460938 88.257812 47.347656 87.628906 C 46.789062 87.308594 46.511719 86.898438 46.511719 86.484375 L 46.027344 81.542969 L 49.359375 81.746094 L 52.695312 81.542969 " fill-opacity="1" fill-rule="nonzero"/></g><g clip-path="url(#c8e0886790)"><path fill="#d0cfec" d="M 51.726562 82.753906 C 50.421875 83.496094 48.304688 83.496094 46.996094 82.753906 C 45.691406 82.011719 45.691406 80.8125 46.996094 80.070312 C 48.304688 79.332031 50.421875 79.332031 51.726562 80.070312 C 53.03125 80.8125 53.03125 82.011719 51.726562 82.753906 " fill-opacity="1" fill-rule="nonzero"/></g><g clip-path="url(#7d8dd5eb79)"><path fill="#a4a2d9" d="M 51.378906 82.554688 C 50.265625 83.1875 48.460938 83.1875 47.347656 82.554688 C 46.234375 81.925781 46.234375 80.902344 47.347656 80.269531 C 48.460938 79.636719 50.265625 79.636719 51.378906 80.269531 C 52.492188 80.902344 52.492188 81.925781 51.378906 82.554688 " fill-opacity="1" fill-rule="nonzero"/></g><g clip-path="url(#74eda9aa3d)"><path fill="#7e7fc2" d="M 52.328125 82.996094 C 52.328125 83.078125 52.261719 83.144531 52.175781 83.144531 C 52.09375 83.144531 52.027344 83.078125 52.027344 82.996094 C 52.027344 82.859375 52.019531 82.71875 52 82.578125 C 51.878906 81.5625 51.335938 80.460938 50.59375 79.652344 C 50.28125 79.3125 49.933594 79.023438 49.570312 78.816406 C 48.941406 78.460938 48.355469 78.398438 47.925781 78.640625 C 47.535156 78.863281 47.304688 79.320312 47.269531 79.933594 C 47.175781 79.976562 47.082031 80.023438 46.996094 80.074219 C 46.984375 80.082031 46.972656 80.085938 46.960938 80.09375 C 46.96875 79.285156 47.257812 78.679688 47.777344 78.386719 C 48.304688 78.085938 48.992188 78.148438 49.71875 78.558594 C 50.226562 78.847656 50.699219 79.28125 51.101562 79.792969 C 51.691406 80.546875 52.125 81.46875 52.269531 82.347656 C 52.308594 82.570312 52.328125 82.78125 52.328125 82.996094 " fill-opacity="1" fill-rule="nonzero"/></g><g clip-path="url(#29b32a6d1c)"><g clip-path="url(#44a31ae008)"><path fill="#314049" d="M 51.558594 81.847656 C 51.199219 81.785156 51.035156 81.507812 50.964844 81.316406 C 50.558594 81.433594 49.898438 81.570312 49.355469 81.480469 C 48.507812 81.335938 48.273438 80.683594 48.273438 80.683594 C 48.273438 80.683594 48.347656 80.65625 48.476562 80.613281 C 48.585938 80.808594 48.878906 81.195312 49.507812 81.300781 C 50.046875 81.390625 50.707031 81.253906 51.117188 81.140625 C 51.183594 81.316406 51.328125 81.5625 51.632812 81.652344 L 51.558594 81.847656 " fill-opacity="1" fill-rule="nonzero"/></g></g><g clip-path="url(#c9ea8b0171)"><g clip-path="url(#702c522a68)"><path fill="#526979" d="M 51.78125 81.269531 L 51.632812 81.652344 C 51.328125 81.5625 51.183594 81.316406 51.117188 81.140625 C 50.707031 81.253906 50.046875 81.390625 49.507812 81.300781 C 48.878906 81.195312 48.585938 80.808594 48.476562 80.613281 C 48.847656 80.5 49.640625 80.296875 50.265625 80.402344 C 50.808594 80.492188 51.101562 80.789062 51.238281 80.996094 C 51.550781 80.882812 52.027344 80.734375 52.386719 80.761719 C 52.414062 80.761719 52.441406 80.765625 52.46875 80.769531 L 51.894531 81.1875 L 51.78125 81.269531 " fill-opacity="1" fill-rule="nonzero"/></g></g><g clip-path="url(#c12d504f3f)"><g clip-path="url(#fd5ffd18fc)"><path fill="#314049" d="M 49.167969 80.921875 C 49.128906 80.96875 49.042969 81 48.976562 80.988281 C 48.914062 80.980469 48.894531 80.929688 48.9375 80.882812 C 48.980469 80.832031 49.066406 80.800781 49.128906 80.8125 C 49.191406 80.824219 49.210938 80.871094 49.167969 80.921875 " fill-opacity="1" fill-rule="nonzero"/></g></g><g clip-path="url(#9d1baa3006)"><g clip-path="url(#3fc88cbf1c)"><path fill="#314049" d="M 50.96875 83.585938 C 50.710938 83.328125 50.738281 83.015625 50.792969 82.816406 C 50.390625 82.679688 49.769531 82.421875 49.378906 82.042969 C 48.765625 81.449219 48.957031 80.777344 48.957031 80.777344 C 48.957031 80.777344 49.035156 80.800781 49.164062 80.839844 C 49.140625 81.058594 49.15625 81.539062 49.609375 81.980469 C 49.996094 82.359375 50.617188 82.617188 51.019531 82.753906 C 50.96875 82.9375 50.945312 83.222656 51.144531 83.464844 L 50.96875 83.585938 " fill-opacity="1" fill-rule="nonzero"/></g></g><g clip-path="url(#cb4b165458)"><g clip-path="url(#7cac8de710)"><path fill="#526979" d="M 51.488281 83.238281 L 51.144531 83.464844 C 50.945312 83.222656 50.96875 82.9375 51.019531 82.753906 C 50.617188 82.617188 49.996094 82.359375 49.609375 81.980469 C 49.15625 81.539062 49.140625 81.058594 49.164062 80.839844 C 49.535156 80.953125 50.304688 81.234375 50.753906 81.671875 C 51.144531 82.050781 51.210938 82.460938 51.203125 82.707031 C 51.527344 82.789062 52 82.9375 52.28125 83.160156 C 52.304688 83.179688 52.324219 83.199219 52.34375 83.214844 L 51.628906 83.234375 L 51.488281 83.238281 " fill-opacity="1" fill-rule="nonzero"/></g></g><g clip-path="url(#71102434e8)"><g clip-path="url(#5b0393f9af)"><path fill="#314049" d="M 49.554688 81.480469 C 49.492188 81.496094 49.402344 81.472656 49.355469 81.429688 C 49.308594 81.382812 49.324219 81.332031 49.386719 81.316406 C 49.449219 81.300781 49.535156 81.324219 49.582031 81.367188 C 49.628906 81.414062 49.617188 81.460938 49.554688 81.480469 " fill-opacity="1" fill-rule="nonzero"/></g></g><g clip-path="url(#0d6adb4204)"><g clip-path="url(#f1d2f10c05)"><path fill="#314049" d="M 49.011719 81.855469 C 48.648438 81.921875 48.398438 81.722656 48.261719 81.566406 C 47.921875 81.816406 47.355469 82.179688 46.820312 82.285156 C 45.976562 82.449219 45.519531 81.921875 45.519531 81.921875 C 45.519531 81.921875 45.578125 81.867188 45.683594 81.785156 C 45.855469 81.925781 46.269531 82.183594 46.894531 82.0625 C 47.433594 81.957031 48 81.597656 48.339844 81.347656 C 48.464844 81.492188 48.691406 81.671875 49.007812 81.644531 L 49.011719 81.855469 " fill-opacity="1" fill-rule="nonzero"/></g></g><g clip-path="url(#37cde52053)"><g clip-path="url(#ee52d2c860)"><path fill="#526979" d="M 49.007812 81.238281 L 49.007812 81.644531 C 48.691406 81.671875 48.464844 81.492188 48.339844 81.347656 C 48 81.597656 47.433594 81.957031 46.894531 82.0625 C 46.269531 82.183594 45.855469 81.925781 45.683594 81.785156 C 45.988281 81.550781 46.652344 81.078125 47.277344 80.957031 C 47.816406 80.851562 48.195312 81.027344 48.402344 81.171875 C 48.652344 80.957031 49.042969 80.652344 49.386719 80.550781 C 49.414062 80.539062 49.441406 80.535156 49.46875 80.527344 L 49.082031 81.121094 L 49.007812 81.238281 " fill-opacity="1" fill-rule="nonzero"/></g></g><g clip-path="url(#1b22a350da)"><g clip-path="url(#72ea70d843)"><path fill="#314049" d="M 50.101562 82.558594 C 49.734375 82.570312 49.515625 82.339844 49.402344 82.164062 C 49.03125 82.363281 48.414062 82.640625 47.867188 82.667969 C 47.007812 82.707031 46.632812 82.121094 46.632812 82.121094 C 46.632812 82.121094 46.703125 82.074219 46.820312 82.007812 C 46.96875 82.175781 47.339844 82.492188 47.976562 82.460938 C 48.523438 82.433594 49.136719 82.15625 49.511719 81.960938 C 49.617188 82.121094 49.808594 82.328125 50.128906 82.347656 L 50.101562 82.558594 " fill-opacity="1" fill-rule="nonzero"/></g></g><g clip-path="url(#bc5db763f6)"><g clip-path="url(#774cdb2d7c)"><path fill="#526979" d="M 50.1875 81.945312 L 50.128906 82.347656 C 49.808594 82.328125 49.617188 82.121094 49.511719 81.960938 C 49.136719 82.15625 48.523438 82.433594 47.976562 82.460938 C 47.339844 82.492188 46.96875 82.175781 46.820312 82.007812 C 47.15625 81.820312 47.882812 81.453125 48.519531 81.421875 C 49.066406 81.394531 49.417969 81.621094 49.597656 81.792969 C 49.878906 81.617188 50.308594 81.371094 50.667969 81.320312 C 50.695312 81.316406 50.722656 81.3125 50.75 81.3125 L 50.1875 81.945312 " fill-opacity="1" fill-rule="nonzero"/></g></g><g clip-path="url(#3aecd068ec)"><g clip-path="url(#2d75f7db14)"><path fill="#314049" d="M 47.5625 82.160156 C 47.53125 82.21875 47.457031 82.265625 47.390625 82.269531 C 47.328125 82.273438 47.296875 82.230469 47.328125 82.171875 C 47.355469 82.117188 47.433594 82.066406 47.5 82.0625 C 47.5625 82.058594 47.59375 82.105469 47.5625 82.160156 " fill-opacity="1" fill-rule="nonzero"/></g></g><g clip-path="url(#efdccd0f56)"><g clip-path="url(#c08ca3189b)"><path fill="#314049" d="M 50.609375 83.632812 C 50.253906 83.535156 50.121094 83.246094 50.066406 83.046875 C 49.648438 83.125 48.980469 83.203125 48.449219 83.0625 C 47.617188 82.84375 47.445312 82.171875 47.445312 82.171875 C 47.445312 82.171875 47.523438 82.152344 47.65625 82.121094 C 47.746094 82.324219 48 82.738281 48.617188 82.898438 C 49.144531 83.039062 49.816406 82.960938 50.234375 82.882812 C 50.285156 83.066406 50.402344 83.328125 50.699219 83.441406 L 50.609375 83.632812 " fill-opacity="1" fill-rule="nonzero"/></g></g><g clip-path="url(#7068a10670)"><g clip-path="url(#dbb9f40f37)"><path fill="#526979" d="M 50.882812 83.074219 L 50.699219 83.441406 C 50.402344 83.328125 50.285156 83.066406 50.234375 82.882812 C 49.816406 82.960938 49.144531 83.039062 48.617188 82.898438 C 48 82.738281 47.746094 82.324219 47.65625 82.121094 C 48.035156 82.042969 48.84375 81.910156 49.457031 82.074219 C 49.988281 82.210938 50.25 82.535156 50.367188 82.753906 C 50.691406 82.667969 51.175781 82.566406 51.535156 82.625 C 51.5625 82.625 51.589844 82.632812 51.617188 82.640625 L 51.003906 83.003906 L 50.882812 83.074219 " fill-opacity="1" fill-rule="nonzero"/></g></g><g clip-path="url(#55072547b3)"><g clip-path="url(#648ad3be69)"><path fill="#314049" d="M 48.316406 82.488281 C 48.269531 82.535156 48.183594 82.558594 48.121094 82.542969 C 48.054688 82.527344 48.042969 82.476562 48.089844 82.429688 C 48.132812 82.386719 48.222656 82.363281 48.285156 82.378906 C 48.347656 82.394531 48.363281 82.445312 48.316406 82.488281 " fill-opacity="1" fill-rule="nonzero"/></g></g><g clip-path="url(#18ca84bb90)"><g clip-path="url(#0b5e9f815d)"><path fill="#314049" d="M 49.820312 84.308594 C 49.585938 84.03125 49.640625 83.71875 49.710938 83.527344 C 49.320312 83.359375 48.722656 83.050781 48.367188 82.640625 C 47.808594 82 48.050781 81.347656 48.050781 81.347656 C 48.050781 81.347656 48.128906 81.375 48.253906 81.425781 C 48.214844 81.640625 48.183594 82.121094 48.597656 82.597656 C 48.957031 83.007812 49.554688 83.316406 49.941406 83.484375 C 49.875 83.664062 49.824219 83.941406 50.007812 84.203125 L 49.820312 84.308594 " fill-opacity="1" fill-rule="nonzero"/></g></g><g clip-path="url(#8aabdbfbc3)"><g clip-path="url(#e6a78d4db8)"><path fill="#526979" d="M 50.367188 84.003906 L 50.007812 84.203125 C 49.824219 83.941406 49.875 83.664062 49.941406 83.484375 C 49.554688 83.316406 48.957031 83.007812 48.597656 82.597656 C 48.183594 82.121094 48.214844 81.640625 48.253906 81.425781 C 48.613281 81.570312 49.355469 81.910156 49.769531 82.382812 C 50.125 82.792969 50.15625 83.207031 50.128906 83.449219 C 50.441406 83.558594 50.902344 83.746094 51.164062 83.992188 C 51.183594 84.011719 51.203125 84.03125 51.222656 84.050781 L 50.507812 84.011719 L 50.367188 84.003906 " fill-opacity="1" fill-rule="nonzero"/></g></g><g clip-path="url(#a909c2da27)"><g clip-path="url(#842a125ef6)"><path fill="#314049" d="M 48.585938 82.09375 C 48.523438 82.105469 48.4375 82.074219 48.394531 82.027344 C 48.351562 81.980469 48.371094 81.929688 48.433594 81.917969 C 48.5 81.90625 48.585938 81.9375 48.625 81.984375 C 48.667969 82.035156 48.652344 82.082031 48.585938 82.09375 " fill-opacity="1" fill-rule="nonzero"/></g></g><g clip-path="url(#3b97154f1e)"><g clip-path="url(#8709847ed5)"><path fill="#314049" d="M 52.882812 82.941406 C 52.550781 82.789062 52.464844 82.480469 52.449219 82.277344 C 52.023438 82.285156 51.347656 82.253906 50.851562 82.027344 C 50.066406 81.675781 50.011719 80.984375 50.011719 80.984375 C 50.011719 80.984375 50.09375 80.976562 50.226562 80.972656 C 50.285156 81.1875 50.460938 81.632812 51.042969 81.894531 C 51.542969 82.117188 52.214844 82.152344 52.640625 82.144531 C 52.65625 82.332031 52.730469 82.609375 53.007812 82.769531 L 52.882812 82.941406 " fill-opacity="1" fill-rule="nonzero"/></g></g><g clip-path="url(#4ae2168211)"><g clip-path="url(#3290cde04c)"><path fill="#526979" d="M 53.246094 82.4375 L 53.007812 82.769531 C 52.730469 82.609375 52.65625 82.332031 52.640625 82.144531 C 52.214844 82.152344 51.542969 82.117188 51.042969 81.894531 C 50.460938 81.632812 50.285156 81.1875 50.226562 80.972656 C 50.613281 80.953125 51.433594 80.957031 52.011719 81.214844 C 52.511719 81.441406 52.714844 81.800781 52.796875 82.035156 C 53.128906 82.003906 53.625 81.984375 53.964844 82.097656 C 53.992188 82.109375 54.019531 82.121094 54.046875 82.128906 L 53.378906 82.386719 L 53.246094 82.4375 " fill-opacity="1" fill-rule="nonzero"/></g></g><g clip-path="url(#7e887e1d9a)"><g clip-path="url(#00c25af365)"><path fill="#314049" d="M 50.816406 81.441406 C 50.761719 81.476562 50.671875 81.488281 50.613281 81.460938 C 50.554688 81.433594 50.550781 81.382812 50.601562 81.34375 C 50.65625 81.308594 50.746094 81.300781 50.804688 81.328125 C 50.863281 81.351562 50.871094 81.40625 50.816406 81.441406 " fill-opacity="1" fill-rule="nonzero"/></g></g><g clip-path="url(#3fc9cd91d3)"><g clip-path="url(#82a917bf2e)"><path fill="#314049" d="M 52.398438 83.921875 C 52.109375 83.699219 52.097656 83.382812 52.128906 83.179688 C 51.710938 83.089844 51.0625 82.910156 50.628906 82.582031 C 49.949219 82.066406 50.050781 81.378906 50.050781 81.378906 C 50.050781 81.378906 50.132812 81.390625 50.265625 81.414062 C 50.269531 81.632812 50.34375 82.109375 50.847656 82.492188 C 51.28125 82.820312 51.929688 83.003906 52.347656 83.089844 C 52.320312 83.277344 52.328125 83.5625 52.558594 83.78125 L 52.398438 83.921875 " fill-opacity="1" fill-rule="nonzero"/></g></g><g clip-path="url(#b332f5d0c9)"><g clip-path="url(#f6a9d80087)"><path fill="#526979" d="M 52.871094 83.511719 L 52.558594 83.78125 C 52.328125 83.5625 52.320312 83.277344 52.347656 83.089844 C 51.929688 83.003906 51.28125 82.820312 50.847656 82.492188 C 50.34375 82.109375 50.269531 81.632812 50.265625 81.414062 C 50.644531 81.484375 51.445312 81.667969 51.949219 82.046875 C 52.382812 82.378906 52.5 82.773438 52.523438 83.019531 C 52.851562 83.0625 53.34375 83.152344 53.648438 83.339844 C 53.671875 83.355469 53.695312 83.371094 53.71875 83.386719 L 53.011719 83.492188 L 52.871094 83.511719 " fill-opacity="1" fill-rule="nonzero"/></g></g><g clip-path="url(#af63ec45f8)"><g clip-path="url(#7039357944)"><path fill="#314049" d="M 50.730469 82 C 50.671875 82.027344 50.582031 82.015625 50.53125 81.976562 C 50.476562 81.9375 50.484375 81.886719 50.542969 81.859375 C 50.605469 81.835938 50.695312 81.847656 50.746094 81.886719 C 50.796875 81.925781 50.792969 81.976562 50.730469 82 " fill-opacity="1" fill-rule="nonzero"/></g></g><path fill="#e99784" d="M 48.304688 77.148438 C 48.511719 77.386719 49.746094 77.386719 49.695312 77.648438 C 49.640625 77.90625 48.964844 77.730469 49 77.929688 C 49.039062 78.125 50.054688 78.523438 49.472656 78.730469 C 49.230469 78.816406 49.515625 79.105469 49.183594 79.21875 C 48.855469 79.335938 49.105469 79.570312 48.703125 79.539062 C 48.300781 79.507812 48.507812 79.839844 48.105469 79.738281 C 47.703125 79.632812 47.066406 77.875 47.066406 77.875 L 48.304688 77.148438 " fill-opacity="1" fill-rule="nonzero"/><path fill="#314049" d="M 43.011719 66.726562 C 42.710938 67.742188 43.148438 71.890625 43.824219 73.058594 C 44.503906 74.230469 46.535156 78.078125 47.105469 78.175781 C 47.671875 78.277344 48.296875 78.0625 48.511719 77.210938 C 48.730469 76.359375 45.859375 72.449219 45.695312 71.808594 C 45.53125 71.171875 46.265625 67.355469 45.53125 66.113281 C 44.800781 64.871094 43.257812 65.90625 43.011719 66.726562 " fill-opacity="1" fill-rule="nonzero"/><path fill="#e14356" d="M 138.214844 82.894531 C 138.527344 80.195312 140.3125 79.195312 142.78125 78.757812 C 145.453125 78.285156 147.078125 79.167969 148.742188 81.285156 C 149.789062 79.019531 151.753906 78.039062 153.492188 77.449219 C 157.523438 76.074219 160.027344 80.457031 159.578125 84.054688 C 159.058594 88.1875 157.292969 92.453125 154.589844 95.472656 C 153.023438 97.21875 151.132812 99.703125 149.476562 99.859375 C 147.820312 100.015625 137.121094 92.230469 138.214844 82.894531 Z M 138.214844 82.894531 " fill-opacity="1" fill-rule="nonzero"/><path fill="#b83946" d="M 158.367188 82.3125 C 158.363281 82.289062 158.359375 82.261719 158.347656 82.238281 C 157.636719 80.527344 156.585938 79.058594 154.683594 78.746094 C 153.839844 78.609375 152.8125 78.746094 152.164062 79.359375 C 151.46875 80.015625 152.320312 80.578125 152.917969 80.765625 C 153.769531 81.03125 154.683594 81.167969 155.421875 81.707031 C 156.265625 82.324219 156.414062 83.234375 156.847656 84.121094 C 157.175781 84.78125 158.105469 84.949219 158.460938 84.199219 C 158.761719 83.5625 158.527344 82.949219 158.367188 82.3125 Z M 158.367188 82.3125 " fill-opacity="1" fill-rule="nonzero"/><path fill="#b83946" d="M 157.210938 85.867188 C 157.144531 85.761719 157.035156 85.6875 156.886719 85.65625 C 156.675781 85.617188 156.453125 85.660156 156.269531 85.769531 C 156.238281 85.785156 156.210938 85.804688 156.183594 85.832031 C 156.132812 85.871094 156.082031 85.914062 156.042969 85.964844 C 155.601562 86.507812 156.132812 87.359375 156.792969 87.09375 C 157.257812 86.90625 157.757812 86.210938 157.210938 85.867188 Z M 157.210938 85.867188 " fill-opacity="1" fill-rule="nonzero"/><g clip-path="url(#c7c6b43b81)"><path fill="#ecacb7" d="M 147 94.535156 C 146.917969 94.535156 146.839844 94.5 146.777344 94.4375 C 146.503906 94.15625 146.464844 92.941406 146.476562 89.195312 C 146.484375 88.140625 146.488281 86.921875 146.460938 86.117188 C 146.265625 86.90625 146.015625 88.121094 145.804688 89.171875 C 144.929688 93.46875 144.769531 93.875 144.398438 93.875 C 143.988281 93.875 143.828125 93.246094 143.382812 90.769531 C 143.242188 89.976562 143.054688 88.933594 142.914062 88.5 C 142.859375 88.625 142.804688 88.8125 142.765625 88.9375 C 142.660156 89.304688 142.550781 89.679688 142.3125 89.867188 C 142.101562 90.035156 141.660156 90 141.011719 89.925781 C 140.863281 89.90625 140.722656 89.890625 140.652344 89.890625 C 139.675781 89.867188 138.667969 89.945312 137.6875 90.019531 C 137.148438 90.058594 136.589844 90.101562 136.042969 90.125 C 135.902344 90.128906 135.785156 90.023438 135.777344 89.878906 C 135.773438 89.734375 135.878906 89.617188 136.019531 89.609375 C 136.558594 89.585938 137.113281 89.542969 137.652344 89.5 C 138.640625 89.425781 139.664062 89.351562 140.660156 89.371094 C 140.757812 89.375 140.902344 89.390625 141.070312 89.410156 C 141.3125 89.4375 141.867188 89.503906 142.007812 89.453125 C 142.117188 89.355469 142.210938 89.03125 142.28125 88.792969 C 142.414062 88.332031 142.554688 87.855469 142.964844 87.855469 C 143.339844 87.855469 143.464844 88.351562 143.882812 90.679688 C 144.027344 91.46875 144.226562 92.578125 144.390625 93.113281 C 144.632812 92.371094 145.015625 90.5 145.304688 89.066406 C 146.105469 85.144531 146.21875 84.859375 146.5625 84.859375 C 146.636719 84.859375 146.710938 84.890625 146.765625 84.945312 C 146.964844 85.148438 147 85.824219 146.984375 89.195312 C 146.980469 90.554688 146.972656 92.429688 147.046875 93.429688 C 147.160156 92.757812 147.257812 91.703125 147.339844 90.855469 C 147.617188 87.90625 147.726562 87.21875 148.183594 87.21875 C 148.546875 87.21875 148.78125 87.601562 148.957031 88.117188 C 149.0625 85.566406 149.269531 85.246094 149.625 85.246094 C 150.089844 85.246094 150.15625 85.933594 150.257812 87.488281 C 150.289062 87.9375 150.320312 88.402344 150.367188 88.757812 C 150.457031 88.757812 150.550781 88.757812 150.640625 88.757812 C 151.097656 88.757812 151.566406 88.757812 151.980469 88.652344 C 152.003906 88.417969 151.988281 88.085938 151.972656 87.765625 C 151.941406 87.101562 151.914062 86.53125 152.160156 86.265625 C 152.25 86.171875 152.363281 86.125 152.492188 86.125 C 152.941406 86.125 153.070312 86.792969 153.394531 89.425781 C 153.492188 90.199219 153.613281 91.1875 153.734375 91.726562 C 153.894531 91.023438 154.035156 89.535156 154.117188 88.652344 C 154.164062 88.164062 154.207031 87.742188 154.242188 87.429688 C 154.300781 86.976562 154.332031 86.703125 154.601562 86.703125 C 154.839844 86.703125 154.917969 86.90625 155.15625 87.511719 C 155.289062 87.851562 155.691406 88.878906 155.910156 88.925781 C 156.785156 88.910156 157.496094 88.816406 158.183594 88.722656 C 158.988281 88.617188 159.820312 88.503906 160.894531 88.527344 C 161.035156 88.53125 161.144531 88.648438 161.144531 88.789062 C 161.140625 88.933594 161.023438 89.046875 160.882812 89.042969 C 159.847656 89.023438 159.070312 89.128906 158.25 89.238281 C 157.542969 89.332031 156.816406 89.429688 155.90625 89.445312 C 155.902344 89.445312 155.898438 89.445312 155.894531 89.445312 C 155.410156 89.425781 155.082031 88.71875 154.714844 87.78125 C 154.683594 88.0625 154.652344 88.390625 154.625 88.703125 C 154.320312 91.90625 154.167969 92.554688 153.730469 92.554688 C 153.3125 92.554688 153.199219 91.976562 152.894531 89.488281 C 152.785156 88.605469 152.628906 87.347656 152.476562 86.820312 C 152.449219 87.066406 152.464844 87.46875 152.480469 87.738281 C 152.5 88.191406 152.519531 88.617188 152.449219 88.917969 C 152.429688 89.003906 152.363281 89.074219 152.28125 89.101562 C 151.761719 89.277344 151.191406 89.277344 150.640625 89.273438 C 150.472656 89.277344 150.316406 89.273438 150.15625 89.28125 C 150.03125 89.28125 149.921875 89.195312 149.898438 89.070312 C 149.828125 88.667969 149.789062 88.085938 149.75 87.523438 C 149.722656 87.085938 149.683594 86.503906 149.625 86.117188 C 149.46875 87.023438 149.425781 89.105469 149.410156 89.882812 L 149.410156 89.945312 C 149.40625 90.070312 149.316406 90.175781 149.195312 90.195312 C 149.074219 90.214844 148.953125 90.140625 148.914062 90.019531 C 148.867188 89.867188 148.816406 89.644531 148.757812 89.382812 C 148.679688 89.035156 148.460938 88.050781 148.253906 87.792969 C 148.09375 88.25 147.953125 89.769531 147.84375 90.90625 C 147.566406 93.847656 147.453125 94.535156 147 94.535156 Z M 147 94.535156 " fill-opacity="1" fill-rule="nonzero"/></g></svg>