<svg xmlns="http://www.w3.org/2000/svg" xmlns:xlink="http://www.w3.org/1999/xlink" width="500" zoomAndPan="magnify" viewBox="0 0 375 374.999991" height="500" preserveAspectRatio="xMidYMid meet" version="1.0"><defs><g/><clipPath id="aabb7f5fa7"><path d="M 184.644531 177.582031 L 208.226562 177.582031 L 208.226562 198.582031 L 184.644531 198.582031 Z M 184.644531 177.582031 " clip-rule="nonzero"/></clipPath><clipPath id="d3284b3351"><path d="M 185.574219 197 L 205.824219 197 L 205.824219 209.535156 L 185.574219 209.535156 Z M 185.574219 197 " clip-rule="nonzero"/></clipPath><clipPath id="907477b6c7"><path d="M 186 175.785156 L 205.824219 175.785156 L 205.824219 201 L 186 201 Z M 186 175.785156 " clip-rule="nonzero"/></clipPath></defs><g fill="#000000" fill-opacity="1"><g transform="translate(76.384723, 206.962327)"><g><path d="M 4.3125 0 L 4.3125 -61.765625 L 17.015625 -61.765625 L 17.015625 0 Z M 4.3125 0 "/></g></g></g><g fill="#000000" fill-opacity="1"><g transform="translate(90.961555, 206.962327)"><g><path d="M 16.3125 -36.84375 L 16.3125 -19.328125 C 16.3125 -15.679688 16.859375 -13.09375 17.953125 -11.5625 C 19.054688 -10.03125 20.925781 -9.265625 23.5625 -9.265625 C 26.195312 -9.265625 28.0625 -10.03125 29.15625 -11.5625 C 30.257812 -13.09375 30.8125 -15.679688 30.8125 -19.328125 L 30.8125 -36.84375 L 43.53125 -36.84375 L 43.53125 -16.234375 C 43.53125 -10.109375 41.9375 -5.691406 38.75 -2.984375 C 35.5625 -0.273438 30.492188 1.078125 23.546875 1.078125 C 16.609375 1.078125 11.546875 -0.273438 8.359375 -2.984375 C 5.179688 -5.691406 3.59375 -10.109375 3.59375 -16.234375 L 3.59375 -36.84375 Z M 16.3125 -36.84375 "/></g></g></g><g fill="#000000" fill-opacity="1"><g transform="translate(131.320616, 206.962327)"><g><path d="M 42.234375 -32.28125 C 45.679688 -28.519531 47.40625 -23.910156 47.40625 -18.453125 C 47.40625 -12.992188 45.679688 -8.375 42.234375 -4.59375 C 38.785156 -0.8125 34.40625 1.078125 29.09375 1.078125 C 24.207031 1.078125 20.179688 -0.453125 17.015625 -3.515625 L 17.015625 18.671875 L 4.3125 18.671875 L 4.3125 -36.84375 L 16.875 -36.84375 L 16.875 -32.6875 L 17.015625 -32.6875 C 20.179688 -36.175781 24.207031 -37.921875 29.09375 -37.921875 C 34.40625 -37.921875 38.785156 -36.039062 42.234375 -32.28125 Z M 31.421875 -12.203125 C 33.078125 -13.835938 33.90625 -15.921875 33.90625 -18.453125 C 33.90625 -20.992188 33.113281 -23.066406 31.53125 -24.671875 C 29.945312 -26.273438 27.863281 -27.078125 25.28125 -27.078125 C 22.789062 -27.078125 20.742188 -26.257812 19.140625 -24.625 C 17.535156 -23 16.734375 -20.941406 16.734375 -18.453125 C 16.734375 -15.921875 17.554688 -13.835938 19.203125 -12.203125 C 20.859375 -10.578125 22.882812 -9.765625 25.28125 -9.765625 C 27.726562 -9.765625 29.773438 -10.578125 31.421875 -12.203125 Z M 31.421875 -12.203125 "/></g></g></g><g fill="#000000" fill-opacity="1"><g transform="translate(173.618727, 206.962327)"><g><path d="M 7.796875 -4.375 C 3.703125 -8.019531 1.65625 -12.691406 1.65625 -18.390625 C 1.65625 -24.085938 3.785156 -28.765625 8.046875 -32.421875 C 12.304688 -36.085938 17.570312 -37.921875 23.84375 -37.921875 C 30.019531 -37.921875 35.226562 -36.078125 39.46875 -32.390625 C 43.707031 -28.703125 45.828125 -24.03125 45.828125 -18.375 C 45.828125 -12.726562 43.753906 -8.070312 39.609375 -4.40625 C 35.472656 -0.75 30.21875 1.078125 23.84375 1.078125 C 17.238281 1.078125 11.890625 -0.738281 7.796875 -4.375 Z M 17.625 -24.625 C 15.976562 -23 15.15625 -20.914062 15.15625 -18.375 C 15.15625 -15.84375 15.941406 -13.773438 17.515625 -12.171875 C 19.097656 -10.566406 21.1875 -9.765625 23.78125 -9.765625 C 26.269531 -9.765625 28.316406 -10.578125 29.921875 -12.203125 C 31.523438 -13.835938 32.328125 -15.898438 32.328125 -18.390625 C 32.328125 -20.921875 31.5 -23 29.84375 -24.625 C 28.1875 -26.257812 26.164062 -27.078125 23.78125 -27.078125 C 21.332031 -27.078125 19.28125 -26.257812 17.625 -24.625 Z M 17.625 -24.625 "/></g></g></g><g fill="#000000" fill-opacity="1"><g transform="translate(214.336867, 206.962327)"><g><path d="M 6.828125 -4.5625 C 3.378906 -8.320312 1.65625 -12.929688 1.65625 -18.390625 C 1.65625 -23.847656 3.378906 -28.46875 6.828125 -32.25 C 10.273438 -36.03125 14.65625 -37.921875 19.96875 -37.921875 C 24.851562 -37.921875 28.875 -36.390625 32.03125 -33.328125 L 32.03125 -61.765625 L 44.75 -61.765625 L 44.75 0 L 32.171875 0 L 32.171875 -4.171875 L 32.03125 -4.171875 C 28.875 -0.671875 24.851562 1.078125 19.96875 1.078125 C 14.65625 1.078125 10.273438 -0.800781 6.828125 -4.5625 Z M 17.625 -24.625 C 15.976562 -23 15.15625 -20.914062 15.15625 -18.375 C 15.15625 -15.84375 15.941406 -13.773438 17.515625 -12.171875 C 19.097656 -10.566406 21.1875 -9.765625 23.78125 -9.765625 C 26.269531 -9.765625 28.316406 -10.578125 29.921875 -12.203125 C 31.523438 -13.835938 32.328125 -15.898438 32.328125 -18.390625 C 32.328125 -20.921875 31.5 -23 29.84375 -24.625 C 28.1875 -26.257812 26.164062 -27.078125 23.78125 -27.078125 C 21.332031 -27.078125 19.28125 -26.257812 17.625 -24.625 Z M 17.625 -24.625 "/></g></g></g><g fill="#000000" fill-opacity="1"><g transform="translate(256.634985, 206.962327)"><g><path d="M 32.25 -36.84375 L 46.90625 -36.84375 L 17.953125 18.671875 L 3.296875 18.671875 L 16.015625 -5.75 L -1.4375 -36.84375 L 13.21875 -36.84375 L 23.484375 -17.953125 Z M 32.25 -36.84375 "/></g></g></g><g fill="#000000" fill-opacity="1"><g transform="translate(295.342265, 206.962327)"><g><path d="M 12.5 -15.375 C 14.800781 -15.375 16.753906 -14.570312 18.359375 -12.96875 C 19.960938 -11.363281 20.765625 -9.410156 20.765625 -7.109375 C 20.765625 -4.859375 19.960938 -2.929688 18.359375 -1.328125 C 16.753906 0.273438 14.800781 1.078125 12.5 1.078125 C 10.25 1.078125 8.320312 0.273438 6.71875 -1.328125 C 5.113281 -2.929688 4.3125 -4.859375 4.3125 -7.109375 C 4.3125 -9.410156 5.113281 -11.363281 6.71875 -12.96875 C 8.320312 -14.570312 10.25 -15.375 12.5 -15.375 Z M 12.5 -15.375 "/></g></g></g><g clip-path="url(#aabb7f5fa7)"><path fill="#000000" d="M 184.644531 177.582031 L 208.226562 177.582031 L 208.226562 198.582031 L 184.644531 198.582031 Z M 184.644531 177.582031 " fill-opacity="1" fill-rule="nonzero"/></g><g clip-path="url(#d3284b3351)"><path fill="#ffffff" d="M 185.566406 209.742188 L 206.023438 209.742188 C 204.726562 208.414062 203.167969 207.335938 201.441406 206.585938 C 200.078125 206.003906 198.601562 205.628906 197.054688 205.492188 L 197.054688 197.464844 L 194.539062 197.464844 L 194.539062 205.492188 C 191.023438 205.792969 187.890625 207.363281 185.566406 209.742188 Z M 185.566406 209.742188 " fill-opacity="1" fill-rule="nonzero"/></g><g clip-path="url(#907477b6c7)"><path fill="#ffffff" d="M 188.714844 182.566406 C 188.808594 182.734375 188.746094 182.949219 188.578125 183.042969 L 186.511719 184.195312 C 186.558594 184.46875 186.617188 184.738281 186.703125 185.007812 L 186.726562 185.074219 L 188.644531 184.003906 C 188.8125 183.910156 189.027344 183.96875 189.121094 184.140625 C 189.214844 184.308594 189.15625 184.519531 188.984375 184.617188 L 186.941406 185.757812 L 187.277344 186.824219 L 189.222656 185.738281 C 189.394531 185.644531 189.605469 185.703125 189.703125 185.871094 C 189.796875 186.042969 189.734375 186.253906 189.566406 186.347656 L 187.492188 187.507812 L 187.746094 188.316406 L 189.929688 187.097656 C 190.101562 187 190.3125 187.0625 190.40625 187.230469 C 190.5 187.398438 190.441406 187.613281 190.273438 187.707031 L 187.964844 188.996094 L 188.496094 190.6875 L 188.496094 196.035156 C 188.496094 198.742188 190.6875 200.933594 193.394531 200.933594 L 198.71875 200.933594 C 200.855469 200.933594 202.582031 199.203125 202.582031 197.070312 L 202.582031 196.46875 C 204.808594 195.125 205.984375 192.484375 205.410156 189.882812 L 202.738281 189.882812 C 202.542969 189.882812 202.386719 189.726562 202.386719 189.535156 C 202.386719 189.339844 202.542969 189.183594 202.738281 189.183594 L 205.21875 189.183594 L 204.882812 188.113281 L 202.109375 188.113281 C 201.914062 188.113281 201.757812 187.957031 201.757812 187.765625 C 201.757812 187.570312 201.914062 187.414062 202.109375 187.414062 L 204.660156 187.414062 L 204.324219 186.34375 L 201.578125 186.34375 C 201.386719 186.34375 201.230469 186.1875 201.230469 185.996094 C 201.230469 185.800781 201.386719 185.644531 201.578125 185.644531 L 204.105469 185.644531 L 203.765625 184.574219 L 200.679688 184.574219 C 200.484375 184.574219 200.328125 184.417969 200.328125 184.226562 C 200.328125 184.03125 200.484375 183.875 200.679688 183.875 L 203.546875 183.875 L 203.207031 182.804688 L 200.269531 182.804688 C 200.078125 182.804688 199.917969 182.648438 199.917969 182.457031 C 199.917969 182.261719 200.078125 182.105469 200.269531 182.105469 L 202.988281 182.105469 L 202.648438 181.035156 L 199.863281 181.035156 C 199.667969 181.035156 199.511719 180.878906 199.511719 180.6875 C 199.511719 180.492188 199.667969 180.335938 199.863281 180.335938 L 202.429688 180.335938 L 202.34375 180.070312 C 202.257812 179.789062 202.144531 179.523438 202.019531 179.265625 L 199.453125 179.265625 C 199.261719 179.265625 199.101562 179.109375 199.101562 178.917969 C 199.101562 178.722656 199.261719 178.566406 199.453125 178.566406 L 201.628906 178.566406 C 200.582031 176.960938 198.847656 175.9375 196.960938 175.789062 L 198.164062 176.976562 C 198.300781 177.109375 198.304688 177.332031 198.167969 177.46875 C 198.097656 177.539062 198.007812 177.574219 197.917969 177.574219 C 197.828125 177.574219 197.742188 177.539062 197.671875 177.472656 L 195.96875 175.789062 C 195.714844 175.8125 195.460938 175.84375 195.207031 175.898438 L 196.5 177.175781 C 196.636719 177.308594 196.636719 177.53125 196.5 177.667969 C 196.433594 177.738281 196.34375 177.773438 196.253906 177.773438 C 196.164062 177.773438 196.074219 177.738281 196.007812 177.671875 L 194.425781 176.113281 L 193.648438 176.355469 L 194.78125 177.476562 C 194.917969 177.613281 194.921875 177.835938 194.785156 177.972656 C 194.714844 178.042969 194.625 178.074219 194.535156 178.074219 C 194.445312 178.074219 194.359375 178.042969 194.289062 177.976562 L 192.894531 176.59375 L 190.722656 177.28125 C 188 178.140625 186.300781 180.714844 186.429688 183.441406 L 188.238281 182.429688 C 188.40625 182.335938 188.621094 182.398438 188.714844 182.566406 Z M 198.511719 180.703125 C 198.507812 180.890625 198.351562 181.039062 198.164062 181.039062 C 198.160156 181.039062 198.15625 181.039062 198.148438 181.039062 C 198.101562 181.039062 193.277344 180.890625 191.175781 183.398438 C 191.109375 183.480469 191.007812 183.523438 190.910156 183.523438 C 190.828125 183.523438 190.75 183.496094 190.683594 183.441406 C 190.535156 183.316406 190.515625 183.09375 190.640625 182.945312 C 192.960938 180.175781 197.964844 180.328125 198.175781 180.339844 C 198.371094 180.347656 198.519531 180.507812 198.511719 180.703125 Z M 198.953125 182.296875 C 198.945312 182.488281 198.808594 182.648438 198.589844 182.632812 C 198.542969 182.632812 193.714844 182.484375 191.617188 184.992188 C 191.550781 185.074219 191.449219 185.117188 191.351562 185.117188 C 191.269531 185.117188 191.191406 185.089844 191.125 185.035156 C 190.976562 184.910156 190.957031 184.691406 191.082031 184.542969 C 193.402344 181.769531 198.40625 181.925781 198.617188 181.933594 C 198.808594 181.941406 198.960938 182.101562 198.953125 182.296875 Z M 199.589844 183.867188 C 199.582031 184.0625 199.429688 184.214844 199.226562 184.207031 C 199.175781 184.207031 194.351562 184.058594 192.253906 186.5625 C 192.183594 186.644531 192.085938 186.6875 191.984375 186.6875 C 191.90625 186.6875 191.828125 186.664062 191.761719 186.609375 C 191.613281 186.484375 191.59375 186.261719 191.71875 186.113281 C 194.035156 183.34375 199.042969 183.496094 199.253906 183.507812 C 199.445312 183.511719 199.597656 183.675781 199.589844 183.867188 Z M 200.210938 185.601562 C 200.203125 185.796875 200.054688 185.953125 199.847656 185.941406 C 199.800781 185.9375 194.972656 185.792969 192.875 188.296875 C 192.808594 188.378906 192.707031 188.421875 192.609375 188.421875 C 192.527344 188.421875 192.449219 188.394531 192.382812 188.339844 C 192.234375 188.21875 192.214844 187.996094 192.339844 187.847656 C 194.660156 185.078125 199.664062 185.230469 199.875 185.242188 C 200.066406 185.246094 200.21875 185.410156 200.210938 185.601562 Z M 200.621094 186.960938 C 200.613281 187.152344 200.460938 187.304688 200.257812 187.296875 C 200.207031 187.300781 195.382812 187.148438 193.285156 189.65625 C 193.214844 189.738281 193.117188 189.78125 193.015625 189.78125 C 192.9375 189.78125 192.855469 189.753906 192.792969 189.699219 C 192.644531 189.574219 192.625 189.355469 192.746094 189.207031 C 195.066406 186.433594 200.074219 186.585938 200.28125 186.597656 C 200.476562 186.605469 200.625 186.769531 200.621094 186.960938 Z M 201.027344 188.601562 C 201.019531 188.789062 200.867188 188.9375 200.679688 188.9375 C 200.671875 188.9375 200.667969 188.9375 200.664062 188.9375 C 200.617188 188.9375 195.792969 188.789062 193.691406 191.296875 C 193.625 191.378906 193.523438 191.421875 193.425781 191.421875 C 193.34375 191.421875 193.265625 191.394531 193.199219 191.339844 C 193.050781 191.214844 193.03125 190.992188 193.15625 190.84375 C 195.476562 188.074219 200.480469 188.230469 200.691406 188.238281 C 200.882812 188.246094 201.035156 188.40625 201.027344 188.601562 Z M 198.894531 191.867188 C 198.863281 191.675781 198.996094 191.496094 199.1875 191.46875 C 199.375 191.4375 199.558594 191.570312 199.585938 191.761719 C 199.804688 193.191406 199.484375 196.054688 196.714844 196.648438 C 196.691406 196.652344 196.667969 196.65625 196.640625 196.65625 C 196.480469 196.65625 196.335938 196.542969 196.300781 196.378906 C 196.257812 196.191406 196.378906 196.003906 196.570312 195.964844 C 199.382812 195.359375 198.914062 192.007812 198.894531 191.867188 Z M 199.21875 196.800781 C 199.179688 196.820312 199.136719 196.828125 199.09375 196.828125 C 198.953125 196.828125 198.820312 196.742188 198.769531 196.601562 C 198.699219 196.421875 198.789062 196.21875 198.96875 196.148438 C 201.226562 195.285156 200.8125 192.324219 200.792969 192.199219 C 200.761719 192.007812 200.894531 191.828125 201.085938 191.800781 C 201.273438 191.769531 201.457031 191.902344 201.484375 192.09375 C 201.492188 192.128906 202.007812 195.734375 199.21875 196.800781 Z M 202.6875 195.417969 C 202.621094 195.515625 202.511719 195.570312 202.402344 195.570312 C 202.332031 195.570312 202.261719 195.550781 202.203125 195.507812 C 202.042969 195.398438 202.003906 195.179688 202.113281 195.019531 C 202.960938 193.796875 202.710938 192.042969 202.707031 192.023438 C 202.679688 191.832031 202.8125 191.65625 203 191.625 C 203.1875 191.597656 203.371094 191.726562 203.398438 191.917969 C 203.414062 192 203.699219 193.964844 202.6875 195.417969 Z M 190.671875 196.441406 L 190.671875 196.242188 C 192.214844 198.195312 194.847656 199.097656 197.359375 198.304688 L 201.011719 197.152344 C 200.820312 198.253906 199.863281 199.097656 198.703125 199.097656 L 193.328125 199.097656 C 191.863281 199.097656 190.671875 197.910156 190.671875 196.441406 Z M 190.132812 181.554688 C 192.453125 178.785156 197.457031 178.941406 197.667969 178.949219 C 197.863281 178.957031 198.011719 179.117188 198.003906 179.3125 C 198 179.503906 197.851562 179.65625 197.640625 179.648438 C 197.59375 179.648438 192.769531 179.5 190.667969 182.007812 C 190.601562 182.089844 190.5 182.132812 190.402344 182.132812 C 190.320312 182.132812 190.242188 182.105469 190.175781 182.050781 C 190.027344 181.925781 190.007812 181.703125 190.132812 181.554688 Z M 190.132812 181.554688 " fill-opacity="1" fill-rule="nonzero"/></g></svg>